<?xml version="1.0" encoding="UTF-8"?>
<!DOCTYPE svg PUBLIC "-//W3C//DTD SVG 1.1//EN" "http://www.w3.org/Graphics/SVG/1.1/DTD/svg11.dtd">
<!-- Creator: CorelDRAW -->
<svg xmlns="http://www.w3.org/2000/svg" xml:space="preserve" width="6.82666in" height="6.82666in" style="shape-rendering:geometricPrecision; text-rendering:geometricPrecision; image-rendering:optimizeQuality; fill-rule:evenodd; clip-rule:evenodd"
viewBox="0 0 6.82666 6.82666"
 xmlns:xlink="http://www.w3.org/1999/xlink">
 <defs>
  <style type="text/css">
   <![CDATA[
    .fil1 {fill:none}
    .fil0 {fill:#1365ee;fill-rule:nonzero}
   ]]>
  </style>
 </defs>
 <g id="Layer_x0020_1">
  <metadata id="CorelCorpID_0Corel-Layer"/>
  <g id="_293215624">
   <path id="_293215696" class="fil0" d="M3.41333 2.34666c0.294539,0 0.561209,0.119398 0.754244,0.312429 0.193031,0.193035 0.312429,0.459705 0.312429,0.754244 0,0.294539 -0.119398,0.561209 -0.312433,0.75424 -0.193031,0.193035 -0.459701,0.312433 -0.75424,0.312433 -0.294539,0 -0.561209,-0.119398 -0.754244,-0.312429 -0.193031,-0.193035 -0.312429,-0.459705 -0.312429,-0.754244 0,-0.294539 0.119398,-0.561209 0.312429,-0.754244 0.193035,-0.193031 0.459705,-0.312429 0.754244,-0.312429zm0.603409 0.463264c-0.154417,-0.154413 -0.367756,-0.249925 -0.603409,-0.249925 -0.235654,0 -0.448992,0.0955118 -0.603409,0.249925 -0.154413,0.154417 -0.249925,0.367756 -0.249925,0.603409 0,0.235654 0.0955118,0.448992 0.249925,0.603409 0.154417,0.154413 0.367756,0.249925 0.603409,0.249925 0.235654,0 0.448992,-0.0955118 0.603406,-0.249929 0.154417,-0.154413 0.249929,-0.367752 0.249929,-0.603406 0,-0.235654 -0.0955118,-0.448992 -0.249925,-0.603409z"/>
   <path id="_293215168" class="fil0" d="M3.38941 3.73793l0 -0.287772c-0.0898268,-0.0257992 -0.155728,-0.0644961 -0.197713,-0.116559 -0.0417441,-0.0520669 -0.0628504,-0.115154 -0.0628504,-0.189268 0,-0.0750472 0.023689,-0.138138 0.071063,-0.189268 0.0476102,-0.051126 0.110697,-0.0804409 0.1895,-0.0884173l0 -0.0680157 0.0994409 0 0 0.0680157c0.072937,0.00890945 0.130866,0.0335354 0.17402,0.0745827 0.0429252,0.0410394 0.0703622,0.0959213 0.0823189,0.164638l-0.173783 0.022748c-0.0105551,-0.0541772 -0.0379961,-0.0907598 -0.0825551,-0.109992l0 0.268539c0.109996,0.0297795 0.185043,0.0684843 0.224681,0.115858 0.0398701,0.047374 0.0598071,0.108114 0.0598071,0.182461 0,0.0827913 -0.0250945,0.152681 -0.0750512,0.209437 -0.0501929,0.0569921 -0.120079,0.0917008 -0.209437,0.104598l0 0.128528 -0.0994409 0 0 -0.12524c-0.0792717,-0.00961417 -0.143768,-0.0391654 -0.193252,-0.0886535 -0.0494843,-0.049252 -0.0809134,-0.119138 -0.094752,-0.209437l0.179417 -0.0192323c0.00727165,0.0365906 0.0211063,0.068252 0.0412795,0.0947559 0.0199331,0.0264961 0.0424488,0.0457283 0.0673071,0.0576929zm0 -0.721421c-0.0272047,0.00915354 -0.0485472,0.0248622 -0.0647323,0.0466772 -0.0159488,0.0220433 -0.0239213,0.0464331 -0.0239213,0.072937 0,0.0241575 0.00727559,0.0469055 0.021815,0.0675472 0.0147717,0.020874 0.0370551,0.0377559 0.0668386,0.0506535l0 -0.237815zm0.0994409 0.731035c0.0344764,-0.00633465 0.0623819,-0.0222835 0.0839606,-0.0476063 0.0215748,-0.0255669 0.0323661,-0.0553543 0.0323661,-0.0898307 0,-0.0307244 -0.00914567,-0.0569882 -0.0272047,-0.0792717 -0.0180591,-0.0222795 -0.0478425,-0.0393976 -0.089122,-0.051126l0 0.267835z"/>
  </g>
  <path class="fil0" d="M4.9 0.853327l0.866673 0c0.0564528,0 0.107996,0.0232126 0.145618,0.0606299l3.93701e-006 -3.93701e-006 0.000208661 0.000208661 0.000208661 0.000208661 -3.93701e-006 3.93701e-006c0.0374173,0.037622 0.0606299,0.0891654 0.0606299,0.145618l0 0.866673c0,0.0564528 -0.0232087,0.107992 -0.0606299,0.145618l3.93701e-006 3.93701e-006 -0.000208661 0.000208661 -0.000208661 0.000208661 -3.93701e-006 -3.93701e-006c-0.037622,0.0374173 -0.0891654,0.0606299 -0.145618,0.0606299l-0.866673 0c-0.0564528,0 -0.107992,-0.0232087 -0.145618,-0.0606299l-3.93701e-006 3.93701e-006 -0.000208661 -0.000208661 -0.000208661 -0.000208661 3.93701e-006 -3.93701e-006c-0.0374213,-0.037626 -0.0606299,-0.0891654 -0.0606299,-0.145618l0 -0.866673c0,-0.0564528 0.0232126,-0.107996 0.0606299,-0.145618l-3.93701e-006 -3.93701e-006 0.000208661 -0.000208661 0.000208661 -0.000208661 3.93701e-006 3.93701e-006c0.037626,-0.0374213 0.0891654,-0.0606299 0.145618,-0.0606299zm0.86 0.213339l-0.853327 0 0 0.853327 0.853327 0 0 -0.853327z"/>
  <path class="fil0" d="M0.998634 4.8l0.866673 0c0.0564528,0 0.107992,0.0232087 0.145618,0.0606299l3.93701e-006 -3.93701e-006 0.000208661 0.000208661 0.000208661 0.000208661 -3.93701e-006 3.93701e-006c0.0374213,0.037626 0.0606299,0.0891654 0.0606299,0.145618l0 0.866673c0,0.0564528 -0.0232126,0.107996 -0.0606299,0.145618l3.93701e-006 3.93701e-006 -0.000208661 0.000208661 -0.000208661 0.000208661 -3.93701e-006 -3.93701e-006c-0.037626,0.0374213 -0.0891654,0.0606299 -0.145618,0.0606299l-0.866673 0c-0.0564528,0 -0.107996,-0.0232126 -0.145618,-0.0606299l-3.93701e-006 3.93701e-006 -0.000208661 -0.000208661 -0.000208661 -0.000208661 3.93701e-006 -3.93701e-006c-0.0374173,-0.037622 -0.0606299,-0.0891654 -0.0606299,-0.145618l0 -0.866673c0,-0.0564528 0.0232087,-0.107992 0.0606299,-0.145618l-3.93701e-006 -3.93701e-006 0.000208661 -0.000208661 0.000208661 -0.000208661 3.93701e-006 3.93701e-006c0.037622,-0.0374173 0.0891654,-0.0606299 0.145618,-0.0606299zm0.86 0.213339l-0.853327 0 0 0.853327 0.853327 0 0 -0.853327z"/>
  <path class="fil0" d="M1.06 1.17333l0.866673 0c0.0564528,0 0.107992,0.0232087 0.145618,0.0606299l3.93701e-006 -3.93701e-006 0.000208661 0.000208661 0.000208661 0.000208661 -3.93701e-006 3.93701e-006c0.0374173,0.037622 0.0606299,0.0891654 0.0606299,0.145618l0 0.866673c0,0.0564528 -0.0232087,0.107992 -0.0606299,0.145618l3.93701e-006 3.93701e-006 -0.000208661 0.000208661 -0.000208661 0.000208661 -3.93701e-006 -3.93701e-006c-0.037626,0.0374213 -0.0891654,0.0606299 -0.145618,0.0606299l-0.866673 0c-0.0564528,0 -0.107996,-0.0232126 -0.145618,-0.0606299l-3.93701e-006 3.93701e-006 -0.000208661 -0.000208661 -0.000208661 -0.000208661 3.93701e-006 -3.93701e-006c-0.0374213,-0.037626 -0.0606299,-0.0891654 -0.0606299,-0.145618l0 -0.866673c0,-0.0564528 0.0232126,-0.107996 0.0606299,-0.145618l-3.93701e-006 -3.93701e-006 0.000208661 -0.000208661 0.000208661 -0.000208661 3.93701e-006 3.93701e-006c0.037622,-0.0374173 0.0891654,-0.0606299 0.145618,-0.0606299zm0.86 0.213339l-0.853327 0 0 0.853327 0.853327 0 0 -0.853327z"/>
  <path class="fil0" d="M4.60922 4.69333l0.866673 0c0.0564528,0 0.107996,0.0232126 0.145618,0.0606299l3.93701e-006 -3.93701e-006 0.000208661 0.000208661 0.000208661 0.000208661 -3.93701e-006 3.93701e-006c0.0374213,0.037626 0.0606299,0.0891654 0.0606299,0.145618l0 0.866673c0,0.0564528 -0.0232126,0.107996 -0.0606299,0.145618l3.93701e-006 3.93701e-006 -0.000208661 0.000208661 -0.000208661 0.000208661 -3.93701e-006 -3.93701e-006c-0.037622,0.0374173 -0.0891654,0.0606299 -0.145618,0.0606299l-0.866673 0c-0.0564528,0 -0.107992,-0.0232087 -0.145618,-0.0606299l-3.93701e-006 3.93701e-006 -0.000208661 -0.000208661 -0.000208661 -0.000208661 3.93701e-006 -3.93701e-006c-0.0374173,-0.037622 -0.0606299,-0.0891654 -0.0606299,-0.145618l0 -0.866673c0,-0.0564528 0.0232087,-0.107992 0.0606299,-0.145618l-3.93701e-006 -3.93701e-006 0.000208661 -0.000208661 0.000208661 -0.000208661 3.93701e-006 3.93701e-006c0.037626,-0.0374213 0.0891654,-0.0606299 0.145618,-0.0606299zm0.86 0.213339l-0.853327 0 0 0.853327 0.853327 0 0 -0.853327z"/>
  <polygon class="fil0" points="2.8245,4.17842 1.98078,5.02213 1.90536,4.94672 2.74908,4.103 "/>
  <polygon class="fil0" points="4.86204,2.04004 4.12986,2.77222 4.05444,2.6968 4.78663,1.96462 "/>
  <polygon class="fil0" points="2.06041,2.30562 2.67063,2.80762 2.60313,2.8897 1.99292,2.3877 "/>
  <polygon class="fil0" points="4.01067,4.15414 4.64589,4.76146 4.57256,4.83854 3.93734,4.23122 "/>
 </g>
 <rect class="fil1" width="6.82666" height="6.82666"/>
</svg>
