<?xml version="1.0" encoding="UTF-8"?>
<!DOCTYPE svg PUBLIC "-//W3C//DTD SVG 1.1//EN" "http://www.w3.org/Graphics/SVG/1.1/DTD/svg11.dtd">
<!-- Creator: CorelDRAW -->
<svg xmlns="http://www.w3.org/2000/svg" xml:space="preserve" width="2048px" height="2048px" style="shape-rendering:geometricPrecision; text-rendering:geometricPrecision; image-rendering:optimizeQuality; fill-rule:evenodd; clip-rule:evenodd"
viewBox="0 0 2048 2048"
 xmlns:xlink="http://www.w3.org/1999/xlink">
 <defs>
  <style type="text/css">
   <![CDATA[
    .fil0 {fill:none}
    .fil1 {fill:#1365ee;fill-rule:nonzero}
   ]]>
  </style>
 </defs>
 <g id="Layer_x0020_1">
  <metadata id="CorelCorpID_0Corel-Layer"/>
  <rect class="fil0" width="2048" height="2048"/>
  <rect class="fil0" x="255.999" y="255.999" width="1536" height="1536"/>
  <rect class="fil0" x="256" y="256" width="1536" height="1536"/>
  <path class="fil1" d="M1194.15 570.078c-33.5091,0 -63.9981,-13.7232 -86.1414,-35.8878 -22.0559,-22.0748 -35.7284,-52.5154 -35.7284,-86.0658 0,-33.6567 13.6347,-64.1563 35.6823,-86.2831 22.1126,-22.1917 52.5922,-35.9067 86.1875,-35.9067 33.5977,0 64.0737,13.715 86.1863,35.9067 22.0477,22.1268 35.6823,52.6264 35.6823,86.2831 0,33.5622 -13.6453,64.0205 -35.7083,86.1024 -22.1221,22.1433 -52.5874,35.8512 -86.1603,35.8512zm-40.891 -80.8879c10.4185,10.428 24.8847,16.8862 40.891,16.8862 16.0547,0 30.5138,-6.44292 40.9099,-16.8496 10.4776,-10.4858 16.9571,-25.0217 16.9571,-41.1024 0,-16.1965 -6.47008,-30.7843 -16.9311,-41.2831 -10.4102,-10.448 -24.8799,-16.9051 -40.9359,-16.9051 -16.0571,0 -30.5268,6.45709 -40.937,16.9051 -10.461,10.4988 -16.9311,25.0866 -16.9311,41.2831 0,16.0536 6.49725,30.5776 16.9772,41.0658z"/>
  <path class="fil1" d="M851.446 571.045c-33.5457,0 -63.9815,-13.7185 -86.0552,-35.9162 -22.0134,-22.1351 -35.6351,-52.6323 -35.6351,-86.2725 0,-33.5469 13.6323,-64.0004 35.6611,-86.0942 22.0819,-22.148 52.5107,-35.8607 86.0292,-35.8607 33.574,0 64.0264,13.7067 86.1355,35.8453 22.0571,22.0878 35.6929,52.5473 35.6929,86.1095 0,33.6544 -13.6252,64.1575 -35.667,86.2879 -22.0996,22.1882 -52.5615,35.9008 -86.1615,35.9008zm-40.8048 -80.9162c10.3949,10.4528 24.8232,16.9146 40.8048,16.9146 16.0512,0 30.5091,-6.45591 40.9111,-16.8992 10.4528,-10.4953 16.9158,-25.0843 16.9158,-41.2878 0,-16.0878 -6.47363,-30.626 -16.9417,-41.1095 -10.3878,-10.4032 -24.8362,-16.8437 -40.8851,-16.8437 -15.9803,0 -30.3969,6.44646 -40.7788,16.8591 -10.4457,10.4764 -16.9099,25.0075 -16.9099,41.0941 0,16.2024 6.45473,30.7855 16.8839,41.2725z"/>
  <path class="fil1" d="M520.433 571.045c-33.5173,0 -64.0087,-13.7339 -86.1355,-35.9481 -22.0311,-22.1197 -35.6929,-52.6016 -35.6929,-86.2406 0,-33.5622 13.6382,-64.0217 35.6941,-86.1095 22.1091,-22.1386 52.5626,-35.8453 86.1343,-35.8453 33.5894,0 64.05,13.7032 86.1662,35.8418 22.0654,22.0855 35.7036,52.5461 35.7036,86.1131 0,33.6579 -13.6264,64.1646 -35.6776,86.2926 -22.1079,22.187 -52.578,35.8961 -86.1922,35.8961zm-40.8851 -80.9481c10.4303,10.4717 24.8977,16.9465 40.8851,16.9465 16.0689,0 30.5374,-6.45237 40.9418,-16.8945 10.461,-10.4976 16.9264,-25.0878 16.9264,-41.2926 0,-16.0878 -6.47599,-30.6272 -16.9524,-41.113 -10.3902,-10.4008 -24.8457,-16.8402 -40.9158,-16.8402 -16.0488,0 -30.4961,6.44056 -40.8839,16.8437 -10.4693,10.4847 -16.9429,25.0217 -16.9429,41.1095 0,16.1705 6.48544,30.7418 16.9417,41.2406z"/>
  <path class="fil1" d="M1408 256.001l-1120 0 0 383.999 1120 0 0 -383.999zm-1152 -64.0016l1184 0 32.0008 0 0 32.0008 0 448.001 0 32.0008 -32.0008 0 -1184 0 -32.0008 0 0 -32.0008 0 -448.001 0 -32.0008 32.0008 0z"/>
  <path class="fil1" d="M983.11 1081.77c0,-70.9536 19.813,-137.561 54.4335,-195.153 18.5823,-30.913 41.4142,-59.1756 67.7115,-84.0674l-817.255 0 0 356.879 703.296 0c-1.1941,-5.73426 -2.27008,-11.5453 -3.22441,-17.4295 -3.24803,-20.0268 -4.96181,-40.1445 -4.96181,-60.2292zm109.185 -162.403c-28.7374,47.8052 -45.1831,103.226 -45.1831,162.403 0,17.4921 1.36772,34.2461 3.96024,50.23 2.67756,16.5106 6.80552,33.0284 12.2055,49.4292l13.8307 42.0012 -44.2063 0 -776.903 0 -32.0008 0 0 -32.0008 0 -420.88 0 -32.0008 32.0008 0 946.198 0 15.6248 59.876c-52.1634,29.3362 -95.5678,71.1024 -125.528,120.943zm-575.026 179.028c-32.9138,0 -62.9197,-12.8788 -84.7512,-33.711 -22.2225,-21.2067 -36.0024,-50.5311 -36.0024,-82.9808 0,-32.3776 13.7587,-61.6949 36.0095,-82.8816 21.8103,-20.7673 51.7737,-33.6296 84.7442,-33.6296 32.9847,0 62.9587,12.8599 84.7749,33.6248 22.2614,21.1866 36.0189,50.504 36.0189,82.8863 0,32.4697 -13.7457,61.8166 -35.987,83.0292 -21.8126,20.8051 -51.7961,33.6626 -84.8068,33.6626zm-40.7504 -79.9607c10.3347,9.86103 24.75,15.9591 40.7504,15.9591 16.0831,0 30.4973,-6.07796 40.8059,-15.9106 9.87993,-9.42284 15.9862,-22.4268 15.9862,-36.7796 0,-14.2512 -6.1193,-27.215 -16.0181,-36.6366 -10.298,-9.80198 -24.6992,-15.8728 -40.774,-15.8728 -16.0536,0 -30.4465,6.07323 -40.7433,15.8776 -9.89174,9.41812 -16.0087,22.3807 -16.0087,36.6319 0,14.3221 6.1252,27.3059 16.0016,36.7311zm367.803 79.9607c-32.9398,0 -62.8914,-12.8646 -84.6721,-33.6803 -22.2059,-21.2221 -35.9457,-50.5607 -35.9457,-83.0115 0,-32.3646 13.7539,-61.6749 35.9764,-82.8674 21.7866,-20.7756 51.7252,-33.6437 84.6414,-33.6437 32.9693,0 62.9339,12.8622 84.7442,33.6296 22.2496,21.1866 36.0083,50.5028 36.0083,82.8816 0,32.4662 -13.7457,61.8095 -35.9776,83.0257 -21.8055,20.8051 -51.7819,33.6662 -84.7749,33.6662zm-40.6713 -79.93c10.3004,9.8445 24.6768,15.9284 40.6713,15.9284 16.063,0 30.4677,-6.08032 40.774,-15.9142 9.87166,-9.42048 15.9768,-22.4209 15.9768,-36.776 0,-14.2512 -6.11693,-27.2138 -16.0075,-36.6319 -10.2969,-9.80434 -24.6898,-15.8776 -40.7433,-15.8776 -15.9862,0 -30.3496,6.07796 -40.6406,15.8917 -9.86694,9.40985 -15.9756,22.3677 -15.9756,36.6177 0,14.3539 6.09567,27.3484 15.9449,36.7618z"/>
  <path class="fil1" d="M1065.7 1318.87l-777.699 0 0 377.124 1105.83 0 0 -220.298 0.155906 0 0 -30.3284c5.66221,0 10.2921,-0.142913 14.263,-0.369685 3.0378,-0.172441 8.5193,-0.627166 14.8323,-1.17756l34.7504 -3.03189 0 34.9075 0 252.299 0 32.0008 -32.0008 0 -1169.83 0 -32.0008 0 0 -32.0008 0 -441.126 0 -32.0008 32.0008 0 809.699 0 0 64.0016z"/>
  <g id="_493833000">
   <path id="_560885848" class="fil1" d="M1529.56 1231.44c-11.6847,5.40237 -23.6953,9.45001 -35.9362,12.1382 -12.3437,2.70945 -24.8918,4.06654 -37.5532,4.06654 -34.063,0 -66.8079,-10.0583 -94.6772,-27.8894 -27.8788,-17.837 -50.739,-43.3866 -65.015,-74.3575 -20.2748,-44.0693 -20.7697,-92.2076 -5.20276,-134.356 15.6024,-42.2457 47.2819,-78.5493 91.2993,-98.8265 11.765,-5.4378 23.7343,-9.48898 35.8158,-12.1488 12.3225,-2.71181 24.8929,-4.07126 37.6111,-4.07126 34.0736,0 66.828,10.0512 94.7091,27.887 27.8752,17.8299 50.7378,43.3784 65.0339,74.3753 20.2831,44.0575 20.7815,92.1969 5.21457,134.353 -15.6,42.2469 -47.2784,78.554 -91.2993,98.83zm-49.4363 -50.3611c7.79528,-1.71142 15.378,-4.25906 22.6866,-7.63819 27.9898,-12.8917 48.1323,-35.974 58.0489,-62.83 9.94843,-26.9398 9.66851,-57.6201 -3.21378,-85.604 -9.14528,-19.8295 -23.6575,-36.1004 -41.2843,-47.3752 -17.6315,-11.2795 -38.5335,-17.6351 -60.4595,-17.6351 -8.11064,0 -16.0866,0.858662 -23.8606,2.5689 -7.94528,1.74921 -15.5728,4.3004 -22.8166,7.64882 -27.9886,12.8929 -48.1311,35.9729 -58.0489,62.8264 -9.94961,26.9386 -9.67442,57.6189 3.20197,85.6075 9.13111,19.8095 23.6386,36.0803 41.2654,47.3575 17.6244,11.2772 38.517,17.6374 60.4276,17.6374 8.23229,0 16.2697,-0.855119 24.0532,-2.56418z"/>
   <path id="_560885800" class="fil1" d="M1723.57 1139.96l-32.3717 -11.9209 -23.4402 -8.6315 2.68937 -24.7441c1.14449,-10.539 1.53898,-21.026 1.15158,-31.3831 -0.382677,-10.2638 -1.5248,-20.6232 -3.45118,-31.0099l-4.52126 -24.3732 22.5213 -10.376 31.1918 -14.3705 0.00590552 0.0129921 0.0318898 -0.0307087c1.72677,-0.793701 2.96929,-2.21457 3.57638,-3.86339 0.633071,-1.71969 0.659056,-3.62599 -0.0614174,-5.33386l-0.100394 -0.101575 -18.2327 -39.5422 0 -0.125197 -0.00944883 -0.0200788 -0.0472441 0.0212599c-0.779528,-1.68307 -2.18268,-2.89961 -3.81378,-3.50315 -1.71969,-0.635434 -3.61063,-0.661418 -5.27717,0.068504l0.0212599 0.046063 -0.122835 0.056693 -0.125197 0 -31.2544 14.3728 -22.5012 10.3476 -15.6236 -19.3477c-6.53268,-8.09056 -13.6476,-15.6721 -21.2764,-22.7185 -7.72442,-7.13386 -15.8929,-13.6358 -24.4418,-19.4811l-20.6103 -14.0917 8.61024 -23.2831 11.9256 -32.25c0.7063,-1.91693 0.591733,-3.89646 -0.164173,-5.54056 -0.714567,-1.55433 -2.05394,-2.84882 -3.84095,-3.51024l-40.8957 -15.111c-1.51299,-0.555119 -3.42992,-0.301181 -5.24646,0.53504 -1.81417,0.833859 -3.22914,2.07047 -3.74646,3.47362l-11.9256 32.3173 -8.62087 23.3622 -24.6295 -2.61142c-10.4894,-1.11142 -20.9788,-1.47756 -31.3973,-1.08071 -10.4232,0.39567 -20.8595,1.53425 -31.2402,3.4252l-24.2906 4.42796 -10.3347 -22.428 -14.3646 -31.1717 -0.011811 -0.0354331 -0.00354331 0.0011811c-0.797245,-1.73268 -2.21811,-2.97638 -3.86457,-3.58347 -1.77992,-0.656693 -3.75,-0.66378 -5.47914,0.129921l-0.249213 0.125197 -0.034252 0.0153543 -0.00354331 -0.00944883 -39.241 18.0154 0.022441 0.0472441c-1.7126,0.793701 -2.95984,2.24292 -3.58465,3.93662 -0.644882,1.74921 -0.654331,3.68504 0.127559,5.38465l14.3705 31.1918 10.3618 22.4917 -19.2366 15.6331c-8.08938,6.57402 -15.7335,13.7728 -22.891,21.5315 -7.1126,7.71024 -13.6028,15.8563 -19.4291,24.3732l-14.1024 20.6138 -23.2725 -8.61379 -32.2547 -11.9374 -0.11811 -0.0437008c-1.54488,-0.570473 -3.46418,-0.330709 -5.25945,0.494882 -1.73032,0.794883 -3.10984,2.00315 -3.69685,3.41103l0.0661418 0.0236221 -0.0437008 0.119291 -15.0496 40.9028 -0.125197 0.125197c-0.120473,0.325985 -0.220866,0.69567 -0.295276,1.09961 -0.0673229,0.364961 -0.112205,0.664961 -0.133465,0.896457l0.111024 0 0 0.943702 -0.0968505 0c0.0330709,0.272835 0.0944883,0.608268 0.183071,1.00158 0.106299,0.466536 0.255118,0.920079 0.444095,1.35l0.046063 -0.0212599c0.447638,0.96378 0.959056,1.72441 1.50591,2.24882l0.0614174 -0.0673229c0.654331,0.604725 1.43622,1.08543 2.30433,1.40433l32.3835 11.941 23.5063 8.66694 -2.75551 24.8327c-1.16457,10.4976 -1.56378,20.9126 -1.18347,31.1563 0.382677,10.3063 1.53543,20.7036 3.47008,31.1126l4.52244 24.3319 -22.6477 10.4173 -31.1339 14.3197 0.022441 0.0472441c-1.71969,0.791339 -2.95748,2.20866 -3.56575,3.85276 -0.659056,1.78228 -0.693308,3.73347 0.0472441,5.43071l0.046063 -0.0212599 18.2977 39.58 0.125197 0.249213 0.022441 0.0496063 -0.00354331 0.0011811c0.81378,1.60039 2.15788,2.74725 3.70158,3.31772 1.76575,0.651969 3.71929,0.661418 5.43426,-0.125197l0.124016 -0.125197 0.0496063 -0.022441 0.0259843 0.056693 31.141 -14.2984 22.4977 -10.3299 15.6272 19.3299c6.52441,8.07048 13.637,15.6425 21.2599,22.6855 7.73859,7.14804 15.9036,13.6559 24.4217,19.4941l20.6043 14.1213 -8.60434 23.2536 -11.9421 32.2713 -0.125197 0.125197c-0.307087,0.826772 -0.441733,1.7126 -0.4063,2.60788 0.0307087,0.784253 0.276378,1.68543 0.72756,2.65866l0 0.125197c0.368504,0.810237 0.929528,1.56496 1.64173,2.2252 0.570473,0.529134 1.32756,0.976772 2.23347,1.30866l40.9004 15.111c1.01693,0.37441 1.97953,0.544489 2.84292,0.511418 0.838583,-0.0318898 1.70906,-0.238583 2.5689,-0.615355l-0.0212599 -0.046063c0.839764,-0.388583 1.56496,-0.912993 2.1437,-1.54016 0.670867,-0.726379 1.18701,-1.52126 1.51772,-2.34803l-0.0673229 -0.0248032 11.9244 -32.328 8.64449 -23.439 24.7311 2.68819c10.4894,1.13976 20.9268,1.52244 31.2414,1.1374 10.3276,-0.386221 20.7319,-1.53071 31.1481,-3.43819l24.3886 -4.46929 10.3606 22.4693 14.3823 31.1918 0.125197 0.249213 0.0165354 0.0366142 -0.00354331 0.0011811c0.807875,1.58268 2.16851,2.72835 3.73583,3.30709 1.7374,0.64252 3.65788,0.65315 5.33977,-0.120473l0.249213 -0.125197 0.0366142 -0.0165354 0.00354331 0.00826772 39.3437 -18.1075 0.249213 -0.125197 0.0602363 -0.0271654 0.0011811 0.00236221c1.55788,-0.801969 2.69292,-2.16024 3.27284,-3.73111 0.633071,-1.71496 0.634252,-3.62599 -0.145276,-5.31733l-0.125197 -0.249213 -0.0271654 -0.0602363 0.00826772 -0.00354331 -14.2654 -31.0016 -10.3984 -22.5957 19.3984 -15.6543c8.08229,-6.52323 15.6555,-13.6299 22.6937,-21.2528 7.13859,-7.73032 13.6441,-15.9106 19.4965,-24.4689l14.1036 -20.6268 23.2713 8.62678 32.3256 11.9823c1.01811,0.373229 1.96654,0.544489 2.79567,0.511418 0.778347,-0.0307087 1.64291,-0.251575 2.55355,-0.659056l-0.0212599 -0.0472441c0.951969,-0.442914 1.71969,-0.979135 2.26417,-1.56969 0.594095,-0.644882 1.07126,-1.42323 1.39252,-2.29725l15.1205 -40.8957c0.679134,-1.84016 0.559843,-3.75827 -0.179528,-5.36457 -0.755906,-1.64173 -2.09764,-2.98465 -3.8374,-3.62835zm11.941 -63.704l10.0583 3.70394c18.3673,6.80434 32.2559,20.4118 39.8374,36.8788 7.59568,16.4977 8.92914,35.85 2.18032,54.1134l-15.1205 40.8957c-3.24922,8.82402 -8.16142,16.7882 -14.3917,23.5477 -6.30355,6.83859 -13.8413,12.3969 -22.265,16.3193l-0.125197 0c-8.52638,3.93307 -17.6398,6.08741 -26.9079,6.45827 -9.28229,0.369685 -18.5256,-1.05118 -27.2941,-4.2626l-10.1551 -3.76418c-3.23977,3.92363 -6.58583,7.75867 -10.0417,11.5004 -3.47362,3.76181 -7.0689,7.44331 -10.7847,11.0398l4.47166 9.71812 0.125197 0.249213 0.0271654 0.0602363 -0.0106299 0.00472441c8.07402,17.6858 8.25591,36.9485 2.0315,53.8122 -6.27638,17.0055 -19.0406,31.6394 -36.7737,39.854l-0.249213 0.125197 -0.0602363 0.0271654 -0.00354331 -0.00826772 -39.3437 18.1075 -0.249213 0.125197 -0.0366142 0.0165354 -0.00472441 -0.0106299c-17.7012,8.06221 -36.9768,8.23701 -53.8347,2.00669 -17.0291,-6.29646 -31.6725,-19.0713 -39.8575,-36.8079l-0.125197 -0.249213 -0.0165354 -0.0366142 0.00826772 -0.00354331 -4.38544 -9.51142c-5.17441,0.480709 -10.3512,0.818505 -15.5268,1.01221 -5.05985,0.188977 -10.0937,0.243307 -15.0945,0.164173l-3.69803 10.0252 -0.125197 0.125197c-3.31063,8.89725 -8.1815,16.8414 -14.3244,23.498 -6.25867,6.78426 -13.8225,12.3236 -22.3949,16.2898l-0.125197 0c-8.59607,3.913 -17.7177,6.05788 -26.9209,6.41339 -9.21733,0.355512 -18.3957,-1.05945 -27.0933,-4.2626l-40.9004 -15.111c-8.86772,-3.2563 -16.8945,-8.21457 -23.7343,-14.5583 -6.67323,-6.18662 -12.1488,-13.7492 -16.0937,-22.3736l-0.0472441 0.022441c-3.93071,-8.46615 -6.10512,-17.5902 -6.47953,-26.9091 -0.364961,-9.11221 1.07126,-18.3307 4.35237,-27.2055l-0.0696851 -0.0259843 3.74292 -10.1138c-3.91418,-3.23504 -7.73977,-6.57756 -11.4721,-10.0264 -3.77717,-3.48898 -7.4752,-7.10316 -11.0882,-10.8378l-9.83859 4.51772 -0.124016 0.125197 -0.0496063 0.022441 -0.0259843 -0.0578741c-17.6965,8.07402 -36.9508,8.27835 -53.7827,2.05866 -17.0197,-6.29292 -31.6429,-19.0571 -39.8233,-36.8185l-0.125197 -0.249213 -0.022441 -0.0496063 0.00826772 -0.00354331 -18.1807 -39.3272 0 -0.125197c-8.13071,-17.7803 -8.34095,-37.1422 -2.0941,-54.0331 6.3,-17.0398 19.0654,-31.6796 36.8162,-39.8528l0.125197 0 9.65316 -4.43977c-0.483071,-5.17323 -0.820867,-10.3547 -1.01339,-15.5386 -0.188977,-5.08229 -0.242126,-10.1339 -0.159449,-15.1465l-10.0394 -3.70158c-8.83465,-3.25276 -16.8,-8.1626 -23.5547,-14.4036l0 -0.125197c-6.8504,-6.33189 -12.4063,-13.8791 -16.3169,-22.3075l0 -0.125197c-2.07874,-4.53662 -3.6626,-9.21142 -4.74213,-13.9524 -1.06299,-4.67363 -1.63819,-9.5752 -1.71142,-14.6268l-0.125197 -0.375591 0 -0.943702 0.125197 -0.250394c0.0413386,-4.19174 0.424016,-8.25473 1.14921,-12.1453 0.72756,-3.90709 1.80709,-7.82008 3.23977,-11.7l-0.0696851 -0.0248032 15.0496 -40.9028 0.0437008 -0.119291 0.125197 -0.125197c6.69804,-17.9386 20.5205,-31.7292 37.0063,-39.3095 16.4811,-7.5756 35.8878,-9.09331 53.7579,-2.49567l0.11811 0.0437008 10.0866 3.73347c3.21851,-3.8941 6.54331,-7.70197 9.97205,-11.4189 3.4937,-3.7878 7.11851,-7.50119 10.8721,-11.1354l-4.4752 -9.71339c-8.18268,-17.7768 -8.39056,-37.1705 -2.12835,-54.1335 6.28583,-17.0327 19.0725,-31.6996 36.8351,-39.9366l0.125197 0 39.5965 -18.1784 0.249213 -0.125197 0.034252 -0.0153543 0.00472441 0.0106299c17.6658,-8.02914 36.9012,-8.22402 53.7237,-2.01614 17.0374,6.28937 31.6819,19.0559 39.8646,36.8339l0.011811 0.0354331 0.00354331 -0.0011811 4.49882 9.76182c5.16969,-0.483071 10.3311,-0.820867 15.4807,-1.01693 5.05985,-0.19252 10.0984,-0.250394 15.1122,-0.174803l3.71221 -10.0606c6.64843,-18.026 20.4839,-31.8744 36.9969,-39.4737 16.5165,-7.60276 36.0225,-9.13583 53.9953,-2.53583l40.8957 15.111c18.3284,6.78071 32.2229,20.4343 39.841,37.0111 7.56969,16.4681 8.89843,35.791 2.16496,54.039l-3.72402 10.0713c3.92008,3.23622 7.75158,6.58229 11.4898,10.0347 3.78425,3.49488 7.48701,7.11378 11.1047,10.8543l9.69922 -4.45985 -0.022441 -0.0472441 0.122835 -0.056693 0.125197 0c17.7236,-8.14371 37.0193,-8.3504 53.8796,-2.11536 16.9843,6.28347 31.5992,19.0335 39.8138,36.7536l0 0.125197 0.00944883 0.0200788 0.0472441 -0.0212599 18.2327 39.5422 -0.0507874 0.0236221 0.068504 0.13937c8.14843,17.7591 8.37757,37.1091 2.14488,54.0213 -6.28347,17.0433 -19.05,31.6843 -36.8268,39.8634l-0.00590552 -0.0129921 -0.0318898 0.0307087 -9.73938 4.48701c0.475985,5.12717 0.809056,10.2591 1.00039,15.3921 0.190158,5.10591 0.243307,10.1823 0.16063,15.2268z"/>
  </g>
 </g>
</svg>
