<?xml version="1.0" encoding="UTF-8"?>
<!DOCTYPE svg PUBLIC "-//W3C//DTD SVG 1.1//EN" "http://www.w3.org/Graphics/SVG/1.1/DTD/svg11.dtd">
<!-- Creator: CorelDRAW -->
<svg xmlns="http://www.w3.org/2000/svg" xml:space="preserve" width="2048px" height="2048px" style="shape-rendering:geometricPrecision; text-rendering:geometricPrecision; image-rendering:optimizeQuality; fill-rule:evenodd; clip-rule:evenodd"
viewBox="0 0 2048 2048"
 xmlns:xlink="http://www.w3.org/1999/xlink">
 <defs>
  <style type="text/css">
   <![CDATA[
    .fil0 {fill:none}
    .fil1 {fill:#1365ee;fill-rule:nonzero}
   ]]>
  </style>
 </defs>
 <g id="Layer_x0020_1">
  <metadata id="CorelCorpID_0Corel-Layer"/>
  <rect class="fil0" width="2048" height="2048"/>
  <rect class="fil0" x="255.999" y="255.999" width="1536" height="1536"/>
  <rect class="fil0" x="256.003" y="256.001" width="1536" height="1536"/>
  <path class="fil1" d="M789.821 1282.38l0 258.533c0,34.1221 13.7764,64.9595 36.0721,87.2564 22.298,22.298 53.1355,36.0721 87.2575,36.0721l723.838 0c34.05,0 64.813,-13.7433 87.0095,-35.9847 22.239,-22.2851 35.9977,-53.1473 35.9977,-87.3438l0 -1034.15c0,-33.9567 -13.774,-64.7079 -36.0343,-86.967 -22.2614,-22.2591 -53.015,-36.0319 -86.9729,-36.0319l-723.838 0c-34.1965,0 -65.0611,13.7575 -87.3461,35.9953 -22.2414,22.1929 -35.9835,52.9548 -35.9835,87.0036l0 258.54 -64.0016 0 0 -258.54c0,-51.567 20.9977,-98.3398 54.9851,-132.254 33.8953,-33.8221 80.6682,-54.7465 132.346,-54.7465l723.838 0c51.6237,0 98.3776,20.9398 132.223,54.7831 33.8445,33.8433 54.7855,80.5949 54.7855,132.217l0 1034.15c0,51.6756 -20.9256,98.4497 -54.7489,132.344 -33.9166,33.9862 -80.6918,54.9863 -132.26,54.9863l-723.838 0c-51.7878,0 -98.6198,-20.9351 -132.508,-54.8233 -33.8859,-33.8882 -54.8233,-80.719 -54.8233,-132.507l0 -258.533 64.0016 0z"/>
  <path class="fil1" d="M426.357 1103.49c5.85827,0 12.1488,-5.07756 17.5819,-13.2839 7.99371,-12.0721 12.939,-29.4095 12.939,-49.1422l0 -0.0354331 0.125197 0c-0.00354331,-19.5992 -4.99725,-36.9355 -13.0642,-49.1174 -5.47796,-8.27245 -11.7709,-13.3902 -17.5713,-13.3902l0 0.125197 -0.0106299 0 -0.0106299 0c-5.85473,0 -12.1429,5.07048 -17.5725,13.2673 -8.07048,12.1831 -13.0665,29.5181 -13.0701,49.1079l0.125197 0 0 0.0354331 -0.125197 0c0.00236221,19.6099 4.99725,36.9614 13.0689,49.1528 5.43189,8.20394 11.7248,13.2803 17.5843,13.2803zm70.8331 21.9673c-17.1933,25.9677 -42.1642,42.0343 -70.8331,42.0343 -28.6713,0 -53.6422,-16.0654 -70.8355,-42.0307 -14.5583,-21.9874 -23.5654,-51.8634 -23.5689,-84.404l-0.125197 0 0 -0.0354331 0.125197 0c0.00708662,-32.5288 9.01536,-62.3871 23.5701,-84.3591 17.1969,-25.9595 42.1642,-42.0177 70.8237,-42.0177l0.0106299 0 0.0106299 0 0 0.125197c28.7162,-0.0011811 53.6811,16.0063 70.8225,41.8902 14.5524,21.9744 23.5571,51.8339 23.5642,84.3686l0.125197 0 0 0.0354331c0,32.4095 -9.05434,62.2914 -23.6894,84.3934z"/>
  <path class="fil1" d="M224.124 1041.05c0.00354331,-87.0981 28.7469,-166.197 75.2138,-223.668 48.137,-59.5371 115.122,-96.3627 189.541,-96.3627 55.6559,0 107.252,20.7177 150.01,56.2252 37.3831,31.0429 67.8095,73.3819 87.8989,122.839l450.335 0 0 0.125197c10.9181,0.00590552 21.4453,2.24528 30.9555,6.43938 9.64489,4.25079 18.4347,10.5201 25.7386,18.5173l63.6012 63.5859 1.12559 1.12559c6.47835,7.11851 11.4142,15.2752 14.7921,23.987 3.42756,8.84883 5.14961,18.2516 5.1567,27.691l0.125197 0c0,9.22678 -1.76221,18.6225 -5.27599,27.6839 -3.38032,8.72127 -8.32087,16.8791 -14.798,23.987l-1.25079 1.25079 -63.6579 62.6623c-7.25197,7.89922 -15.9791,14.1036 -25.5579,18.3343 -9.50198,4.19764 -20.0315,6.44056 -30.9544,6.44646l-48.1453 -0.00826772c-10.2118,-0.0141732 -20.1449,-2.01614 -29.2642,-5.79331l-0.125197 0c-9.13938,-3.7878 -17.5748,-9.38505 -24.7701,-16.5744l-0.125197 0 -9.9319 -9.9319 -9.9319 9.9319 -0.125197 0c-7.12914,7.12678 -15.6059,12.7264 -24.8906,16.5732 -9.1193,3.77835 -19.0536,5.78032 -29.2689,5.79449l0 0.125197 -56.4461 0c-10.0795,0 -20.048,-2.04685 -29.3646,-5.90906 -9.14646,-3.79016 -17.5831,-9.39568 -24.7795,-16.5839l-0.125197 0 -9.9319 -9.9319 -9.93308 9.9319c-7.07008,7.07008 -15.6,12.6768 -25.0276,16.5827 -9.13347,3.78189 -19.0642,5.78386 -29.2488,5.77796l-88.8485 0.00590552c-20.0917,49.513 -50.5406,91.8922 -87.9556,122.963 -42.6615,35.4272 -94.2509,56.1 -150.012,56.1036 -74.4839,-0.00472441 -141.468,-36.7878 -189.541,-96.2516 -46.5414,-57.5705 -75.3308,-136.678 -75.3308,-223.676l0.125197 0zm124.964 -183.669c-37.8166,46.7729 -61.2107,111.693 -61.213,183.669l0.125197 0c0,72.0827 23.3433,136.997 61.0796,183.677 36.2103,44.791 85.6725,72.4961 139.791,72.4997 40.2142,-0.00236221 77.817,-15.2398 109.262,-41.3516 33.5492,-27.8599 60.2162,-68.1331 75.9981,-115.839l7.23662 -21.874 23.139 -0.0011811 111.181 -0.00708662c1.6748,0 3.37677,-0.356693 4.99843,-1.02756 1.33347,-0.552756 2.70473,-1.50945 4.02756,-2.83229l32.5583 -32.5571 22.6264 -22.6252 22.624 22.6252 32.5571 32.5571 -0.0625985 0.0625985c1.19528,1.17638 2.63268,2.11417 4.21772,2.77087 1.43032,0.592914 3.0815,0.908268 4.86378,0.908268l56.4461 0 0 0.125197c1.6689,-0.0011811 3.37559,-0.36378 5.01851,-1.0441 1.44567,-0.598819 2.83347,-1.53189 4.07835,-2.76024l-0.0625985 -0.0625985 32.5571 -32.5571 22.6252 -22.6252 22.6252 22.6252 32.5571 32.5571 -0.0614174 0.0625985c1.18937,1.17047 2.62205,2.10473 4.20709,2.76142l-0.0177165 0.0437008c1.60748,0.650788 3.2752,0.998032 4.9063,0.999213l48.1453 0.00826772c1.66654,0 3.44292,-0.416929 5.20394,-1.19528 1.60984,-0.711024 3.06142,-1.73977 4.24252,-3.03544l1.25079 -1.25079 63.6237 -62.6292c1.10315,-1.24606 1.90276,-2.53937 2.39882,-3.81969 0.514961,-1.32756 0.773623,-2.92323 0.773623,-4.68307l0.125197 0c-0.0011811,-1.54488 -0.303544,-3.13937 -0.904725,-4.69016 -0.520867,-1.34291 -1.36772,-2.69528 -2.54173,-3.98622l-63.6 -63.5847 -1.12559 -1.12559c-1.17047,-1.28268 -2.62205,-2.30669 -4.24134,-3.02008 -1.75394,-0.773623 -3.53032,-1.18819 -5.20512,-1.18819l0 0.125197 -472.616 0 -23.0988 0 -7.27678 -22.0004c-15.7784,-47.7083 -42.4453,-87.9839 -75.9922,-115.841 -31.3477,-26.0327 -68.9434,-41.2229 -109.259,-41.2229 -54.189,0 -103.644,27.6532 -139.791,72.3603z"/>
 </g>
</svg>
