<?xml version="1.0" encoding="UTF-8"?>
<!DOCTYPE svg PUBLIC "-//W3C//DTD SVG 1.1//EN" "http://www.w3.org/Graphics/SVG/1.1/DTD/svg11.dtd">
<!-- Creator: CorelDRAW -->
<svg xmlns="http://www.w3.org/2000/svg" xml:space="preserve" width="2048px" height="2048px" style="shape-rendering:geometricPrecision; text-rendering:geometricPrecision; image-rendering:optimizeQuality; fill-rule:evenodd; clip-rule:evenodd"
viewBox="0 0 2048 2048"
 xmlns:xlink="http://www.w3.org/1999/xlink">
 <defs>
  <style type="text/css">
   <![CDATA[
    .fil0 {fill:none}
    .fil1 {fill:#1365ee;fill-rule:nonzero}
   ]]>
  </style>
 </defs>
 <g id="Layer_x0020_1">
  <metadata id="CorelCorpID_0Corel-Layer"/>
  <rect class="fil0" width="2048" height="2048"/>
  <rect class="fil0" x="255.999" y="255.999" width="1536" height="1536"/>
  <rect class="fil0" x="255.999" y="256.001" width="1536" height="1536"/>
  <path class="fil1" d="M1500.28 1421.95l0 -201.625c0,-26.3847 -10.6429,-50.2241 -27.8339,-67.4422 -17.1354,-17.1602 -40.8945,-27.7748 -67.1918,-27.7748l-317.645 0 -127.217 0 -317.645 0c-26.2973,0 -50.0563,10.6146 -67.1918,27.7748 -17.191,17.2181 -27.8339,41.0575 -27.8339,67.4422l0 201.625 0 22.552 -21.3756 7.57323c-31.337,11.1 -58.1174,31.5792 -76.8473,58.0382 -18.1335,25.6169 -28.7918,57.0697 -28.7918,91.2674 0,87.5221 70.9749,158.628 158.628,158.628 43.741,0 83.4024,-17.7839 112.127,-46.5071 28.7173,-28.7185 46.5024,-68.3717 46.5024,-112.121 0,-34.0902 -10.6866,-65.4898 -28.852,-91.1127 -18.8421,-26.5748 -45.6815,-47.1107 -76.9902,-58.193l-21.3756 -7.56733 0 -22.5579 0 -201.625 0 -32.0008 32.0008 0 317.645 0 32.0008 0 0 32.0008 0 201.625 0 22.552 -21.3756 7.57323c-31.337,11.1 -58.1185,31.5792 -76.8485,58.0382 -18.1335,25.6169 -28.7918,57.0697 -28.7918,91.2674 0,87.5221 71.002,158.628 158.617,158.628 43.8,0 83.4485,-17.7662 112.148,-46.4658 28.7185,-28.7185 46.4811,-68.3882 46.4811,-112.162 0,-34.1977 -10.6583,-65.6504 -28.7918,-91.2674 -18.7299,-26.4591 -45.5115,-46.9382 -76.8485,-58.0382l-21.3756 -7.57323 0 -22.552 0 -201.625 0 -32.0008 32.0008 0 317.645 0 32.0008 0 0 32.0008 0 201.625 0 22.5579 -21.3756 7.56733c-31.3087,11.0823 -58.1481,31.6181 -76.9902,58.193 -18.1654,25.6229 -28.852,57.0225 -28.852,91.1127 0,87.5221 71.1343,158.628 158.629,158.628 43.8118,0 83.4568,-17.7626 112.152,-46.4575 28.7185,-28.7185 46.4764,-68.3906 46.4764,-112.171 0,-34.1977 -10.6583,-65.6504 -28.7918,-91.2674 -18.7299,-26.4591 -45.5103,-46.9382 -76.8473,-58.0382l-21.3756 -7.57323 0 -22.552zm64.0016 -201.625l0 180.359c34.5567,16.4835 64.2414,41.628 86.2205,72.678 25.6937,36.2965 40.7941,80.439 40.7941,128.019 0,61.4386 -24.9225,117.116 -65.2276,157.421 -40.2768,40.2768 -95.9174,65.2087 -157.402,65.2087 -118.929,0 -216.318,-93.606 -222.334,-211.094 -2.9067,56.85 -27.1713,108.11 -64.9382,145.877 -40.2815,40.2815 -95.928,65.217 -157.399,65.217 -119.094,0 -216.318,-93.6072 -222.324,-211.095 -2.91024,56.8323 -27.1996,108.077 -64.9583,145.837 -40.3063,40.3051 -95.9729,65.2583 -157.377,65.2583 -123.019,0 -222.63,-99.7938 -222.63,-222.63 0,-47.5796 15.1004,-91.7221 40.7941,-128.019 21.9792,-31.05 51.6638,-56.1945 86.2205,-72.678l0 -180.359c0,-43.8709 17.8122,-83.6245 46.5851,-112.442 28.8579,-28.9004 68.6327,-46.7764 112.442,-46.7764l317.645 0 127.217 0 317.645 0c43.8095,0 83.5843,17.876 112.442,46.7764 28.7729,28.8177 46.5851,68.5713 46.5851,112.442zm-803.169 252.944c23.6457,33.352 38.341,73.3713 40.5591,116.639 2.21811,-43.1941 16.8827,-83.1839 40.4989,-116.545 21.9792,-31.05 51.665,-56.1945 86.2217,-72.678l0 -148.358 -253.643 0 0 148.343c34.6488,16.4882 64.3902,41.6091 86.3635,72.6001zm444.72 0.0933072c23.6162,33.3614 38.2807,73.3512 40.4989,116.545 2.21811,-43.2674 16.9134,-83.2867 40.5591,-116.639 21.9732,-30.991 51.7146,-56.1119 86.3635,-72.6001l0 -148.343 -253.643 0 0 148.358c34.5567,16.4835 64.2426,41.628 86.2217,72.678zm-626.496 223.634c-26.3622,0 -50.2701,-10.7268 -67.5804,-28.0347 -17.3079,-17.3102 -28.0347,-41.2181 -28.0347,-67.5804 0,-26.2914 10.7622,-50.1355 28.1327,-67.4516 17.3362,-17.2784 41.2158,-27.9614 67.4823,-27.9614 26.3622,0 50.2134,10.6689 67.4788,27.9343 17.2654,17.2654 27.9343,41.1166 27.9343,67.4788 0,26.2666 -10.6831,50.1461 -27.9614,67.4823 -17.3162,17.3705 -41.1603,28.1327 -67.4516,28.1327zm-22.3299 -73.2851c5.73189,5.73071 13.6335,9.28347 22.3299,9.28347 8.73898,0 16.5815,-3.4937 22.2012,-9.13111 5.69056,-5.70945 9.21024,-13.6618 9.21024,-22.4823 0,-8.69646 -3.50788,-16.5532 -9.18308,-22.2284 -5.6752,-5.6752 -13.5319,-9.18308 -22.2284,-9.18308 -8.82048,0 -16.7728,3.51969 -22.4823,9.21024 -5.63741,5.61969 -9.13111,13.4622 -9.13111,22.2012 0,8.69646 3.55276,16.598 9.28347,22.3299zm466.989 73.2851c-26.3622,0 -50.2678,-10.7256 -67.5721,-28.0335 -17.3067,-17.3102 -28.0311,-41.2181 -28.0311,-67.5815 0,-26.2914 10.7587,-50.1367 28.1292,-67.4528 17.3303,-17.2795 41.2075,-27.9603 67.4741,-27.9603 26.2666,0 50.1461,10.6831 67.4823,27.9614 17.3705,17.3162 28.1327,41.1603 28.1327,67.4516 0,26.3622 -10.7268,50.2701 -28.0347,67.5804 -17.3102,17.3079 -41.2181,28.0347 -67.5804,28.0347zm-22.3217 -73.2839c5.72953,5.73071 13.6288,9.28229 22.3217,9.28229 8.69646,0 16.598,-3.55276 22.3299,-9.28347 5.73071,-5.73189 9.28347,-13.6335 9.28347,-22.3299 0,-8.73898 -3.4937,-16.5815 -9.13111,-22.2012 -5.70945,-5.69056 -13.6618,-9.21024 -22.4823,-9.21024 -8.81812,0 -16.7669,3.51851 -22.474,9.20906 -5.63504,5.61851 -9.12757,13.461 -9.12757,22.2024 0,8.69883 3.55158,16.6016 9.27993,22.3311zm466.993 73.2839c-26.2914,0 -50.1355,-10.7622 -67.4516,-28.1327 -17.2784,-17.3362 -27.9614,-41.2158 -27.9614,-67.4823 0,-26.3622 10.6689,-50.2134 27.9343,-67.4788 17.2654,-17.2654 41.1166,-27.9343 67.4788,-27.9343 26.2666,0 50.1461,10.6831 67.4823,27.9614 17.3705,17.3162 28.1327,41.1603 28.1327,67.4516 0,26.3622 -10.7268,50.2701 -28.0347,67.5804 -17.3102,17.3079 -41.2181,28.0347 -67.5804,28.0347zm-22.2012 -73.1327c5.61969,5.63741 13.4622,9.13111 22.2012,9.13111 8.69646,0 16.598,-3.55276 22.3299,-9.28347 5.73071,-5.73189 9.28347,-13.6335 9.28347,-22.3299 0,-8.73898 -3.4937,-16.5815 -9.13111,-22.2012 -5.70945,-5.69056 -13.6618,-9.21024 -22.4823,-9.21024 -8.69646,0 -16.5532,3.50788 -22.2284,9.18308 -5.6752,5.6752 -9.18308,13.5319 -9.18308,22.2284 0,8.82048 3.51969,16.7728 9.21024,22.4823z"/>
  <path class="fil1" d="M1280.97 404.131c0,69.6993 -28.9323,132.842 -75.7028,178.583 -10.7929,10.5555 -22.5366,20.1756 -35.0929,28.7268 67.8107,10.6476 128.557,42.1985 175.048,87.6674 58.1434,56.8654 94.1599,135.33 94.1599,221.866l0 0.242126 -0.116929 0 0.617717 38.2855 0.52441 32.5004 -32.4 0 -768.006 0 -32.0008 0 0 -32.0008 0 -38.7851c0,-86.5808 36.0697,-165.144 94.291,-222.075 46.5284,-45.4961 107.221,-77.0918 174.907,-87.789 -12.5067,-8.52757 -24.2055,-18.1146 -34.9559,-28.6311 -46.6867,-45.6674 -75.5611,-108.807 -75.5611,-178.59 0,-69.6792 28.9193,-132.789 75.6792,-178.5 46.5036,-45.463 110.661,-73.578 181.443,-73.578 70.7835,0 134.954,28.1162 181.472,73.5839 46.7658,45.7087 75.6945,108.816 75.6945,178.494zm-120.202 132.832c34.7209,-33.9555 56.2004,-80.9174 56.2004,-132.832 0,-51.8835 -21.476,-98.8111 -56.1922,-132.743 -34.9796,-34.1894 -83.4048,-55.3335 -136.973,-55.3335 -53.5642,0 -101.975,21.1417 -136.944,55.3276 -34.7091,33.9307 -56.1768,80.8595 -56.1768,132.749 0,51.8363 21.5185,98.8076 56.3091,132.839 34.9725,34.2095 83.341,55.3689 136.812,55.3689 53.5583,0 101.981,-21.1618 136.964,-55.376zm-41.491 134.391l-191.022 0c-70.8402,0 -135.028,28.1327 -181.465,73.539 -46.1788,45.1548 -74.7886,107.529 -74.7886,176.323l0 6.78426 703.606 0 -0.101575 -6.28465 -0.125197 -0.499607 0 -0.242126c0,-68.7461 -28.5567,-131.027 -74.6575,-176.114 -46.4469,-45.4252 -110.541,-73.5709 -181.186,-73.6312l0 0.125197 -0.259843 0z"/>
 </g>
</svg>
