<?xml version="1.0" encoding="UTF-8"?>
<!DOCTYPE svg PUBLIC "-//W3C//DTD SVG 1.1//EN" "http://www.w3.org/Graphics/SVG/1.1/DTD/svg11.dtd">
<!-- Creator: CorelDRAW -->
<svg xmlns="http://www.w3.org/2000/svg" xml:space="preserve" width="2048px" height="2048px" style="shape-rendering:geometricPrecision; text-rendering:geometricPrecision; image-rendering:optimizeQuality; fill-rule:evenodd; clip-rule:evenodd"
viewBox="0 0 2048 2048"
 xmlns:xlink="http://www.w3.org/1999/xlink">
 <defs>
  <style type="text/css">
   <![CDATA[
    .fil0 {fill:none}
    .fil1 {fill:#1365ee;fill-rule:nonzero}
   ]]>
  </style>
 </defs>
 <g id="Layer_x0020_1">
  <metadata id="CorelCorpID_0Corel-Layer"/>
  <rect class="fil0" width="2048" height="2048"/>
  <rect class="fil0" x="255.999" y="255.999" width="1536" height="1536"/>
  <rect class="fil0" x="255.999" y="255.999" width="1536" height="1536"/>
  <polygon class="fil1" points="1472,288 384.001,288 384.001,1600 1472,1600 1472,1267.54 1536,1316.66 1536,1632 1536,1664 1504,1664 352.001,1664 320,1664 320,1632 320,255.999 320,223.999 352.001,223.999 1504,223.999 1536,223.999 1536,255.999 1536,1155.5 1472,1106.38 "/>
  <line class="fil0" x1="512" y1="1280" x2="1312" y2= "1280" />
  <polygon class="fil1" points="512,1248 1312,1248 1312,1312 512,1312 "/>
  <path class="fil1" d="M576.002 1695.8l0 64.1953 1088 0 0 -345.096 57.143 43.8567c2.21575,1.70079 4.50709,3.2315 6.85867,4.59685l0 328.643 0 32.0008 -32.0008 0 -1152 0 -32.0008 0 0 -32.0008 0 -96.1961 64.0016 0zm1088 -442.067l0 -805.737 -103.195 0 0 -64.0016 135.196 0 32.0008 0 0 32.0008 0 886.859 -64.0016 -49.1209z"/>
  <line class="fil0" x1="512" y1="1472" x2="1312" y2= "1472" />
  <polygon class="fil1" points="512,1440 1312,1440 1312,1504 512,1504 "/>
  <path class="fil1" d="M1012.56 415.998c99.0202,0 188.673,40.141 253.566,105.036 64.8945,64.8934 105.036,154.546 105.036,253.566 0,99.0202 -40.1398,188.671 -105.036,253.566 -64.8934,64.8945 -154.546,105.036 -253.566,105.036 -99.0202,0 -188.673,-40.141 -253.566,-105.036 -64.8945,-64.8934 -105.036,-154.546 -105.036,-253.566 0,-99.0213 40.141,-188.673 105.034,-253.568 64.8945,-64.8934 154.546,-105.034 253.568,-105.034zm208.316 150.286c-53.3079,-53.3091 -126.962,-86.2843 -208.316,-86.2843 -81.3556,0 -155.007,32.974 -208.317,86.2831 -53.3091,53.3103 -86.2831,126.962 -86.2831,208.317 0,81.3544 32.9752,155.008 86.2843,208.316 53.3079,53.3091 126.962,86.2843 208.316,86.2843 81.3544,0 155.008,-32.9752 208.316,-86.2843 53.3103,-53.3103 86.2843,-126.962 86.2843,-208.316 0,-81.3544 -32.9752,-155.008 -86.2843,-208.316z"/>
  <path class="fil1" d="M1259.43 983.564c-14.0138,-10.6996 -34.05,-8.01379 -44.7496,6 -10.6996,14.0138 -8.01379,34.05 6,44.7496l519.95 399.061c14.0138,10.6996 34.05,8.01379 44.7496,-6 10.6996,-14.0138 8.01379,-34.05 -6,-44.7496l-519.95 -399.061z"/>
  <polygon class="fil1" points="1120,607.999 1120,927.999 1056,927.999 1056,607.999 "/>
  <polygon class="fil1" points="960,703.999 960,927.999 895.998,927.999 895.998,703.999 "/>
 </g>
</svg>
