<?xml version="1.0" encoding="UTF-8"?>
<!DOCTYPE svg PUBLIC "-//W3C//DTD SVG 1.1//EN" "http://www.w3.org/Graphics/SVG/1.1/DTD/svg11.dtd">
<!-- Creator: CorelDRAW -->
<svg xmlns="http://www.w3.org/2000/svg" xml:space="preserve" width="6.82666in" height="6.82666in" style="shape-rendering:geometricPrecision; text-rendering:geometricPrecision; image-rendering:optimizeQuality; fill-rule:evenodd; clip-rule:evenodd"
viewBox="0 0 6.82666 6.82666"
 xmlns:xlink="http://www.w3.org/1999/xlink">
 <defs>
  <style type="text/css">
   <![CDATA[
    .fil1 {fill:none}
    .fil0 {fill:#1365ee;fill-rule:nonzero}
   ]]>
  </style>
 </defs>
 <g id="Layer_x0020_1">
  <metadata id="CorelCorpID_0Corel-Layer"/>
  <g id="_224831360">
   <path id="_224830976" class="fil0" d="M1.72881 1.18788l3.36904 0c0.0644921,0 0.122555,0.0288583 0.164142,0.0753346 0.0387795,0.0433386 0.0628504,0.102098 0.0628504,0.165803l0 4.30318c0,0.0637047 -0.0240787,0.122465 -0.0628543,0.165799 -0.0415827,0.0464882 -0.0996535,0.0753425 -0.164138,0.0753425l-3.36904 0c-0.0644803,0 -0.122547,-0.0288583 -0.164142,-0.0753386 -0.0387756,-0.0433307 -0.0628465,-0.102091 -0.0628465,-0.165803l0 -4.30318c0,-0.0637126 0.0240709,-0.122472 0.0628465,-0.165803 0.0415866,-0.0464843 0.0996496,-0.0753346 0.164142,-0.0753346zm3.36904 0.213339l-3.36904 0c-0.00168504,0 -0.00379134,0.00140945 -0.00581102,0.00366535 -0.00483465,0.00540157 -0.00783858,0.0138937 -0.00783858,0.0241339l0 4.30318c0,0.0102402 0.00300394,0.0187323 0.00783858,0.0241339 0.00202362,0.00225984 0.00412992,0.00366929 0.00581102,0.00366929l3.36904 0c0.00167717,0 0.00378346,-0.00140945 0.00580709,-0.00367323 0.00483858,-0.00540945 0.00784646,-0.0138937 0.00784646,-0.0241299l0 -4.30318c0,-0.0102402 -0.00300787,-0.0187283 -0.00784252,-0.0241339 -0.00202362,-0.00225984 -0.00412598,-0.00366535 -0.00581102,-0.00366535z"/>
   <polygon id="_224831312" class="fil0" points="1.94304,2.6376 4.88363,2.6376 4.88363,2.85094 1.94304,2.85094 "/>
   <path id="_224831264" class="fil0" d="M2.31394 0.96c0,-0.0589094 -0.0477598,-0.106669 -0.106669,-0.106669 -0.0589094,0 -0.106669,0.0477598 -0.106669,0.106669l0 0.669091c0,0.0589094 0.0477598,0.106669 0.106669,0.106669 0.0589094,0 0.106669,-0.0477598 0.106669,-0.106669l0 -0.669091z"/>
   <path id="_224831192" class="fil0" d="M4.54425 0.96c0,-0.0589094 -0.0477598,-0.106669 -0.106669,-0.106669 -0.0589094,0 -0.106669,0.0477598 -0.106669,0.106669l0 0.669091c0,0.0589094 0.0477598,0.106669 0.106669,0.106669 0.0589094,0 0.106669,-0.0477598 0.106669,-0.106669l0 -0.669091z"/>
   <polygon id="_224830904" class="fil0" points="1.94304,3.64122 4.88363,3.64122 4.88363,3.85456 1.94304,3.85456 "/>
   <polygon id="_224831096" class="fil0" points="1.94304,4.64484 4.88363,4.64484 4.88363,4.85818 1.94304,4.85818 "/>
  </g>
 </g>
 <rect class="fil1" width="6.82666" height="6.82666"/>
</svg>
