<?xml version="1.0" encoding="UTF-8"?>
<!DOCTYPE svg PUBLIC "-//W3C//DTD SVG 1.1//EN" "http://www.w3.org/Graphics/SVG/1.1/DTD/svg11.dtd">
<!-- Creator: CorelDRAW -->
<svg xmlns="http://www.w3.org/2000/svg" xml:space="preserve" width="6.82666in" height="6.82666in" style="shape-rendering:geometricPrecision; text-rendering:geometricPrecision; image-rendering:optimizeQuality; fill-rule:evenodd; clip-rule:evenodd"
viewBox="0 0 6.82666 6.82666"
 xmlns:xlink="http://www.w3.org/1999/xlink">
 <defs>
  <style type="text/css">
   <![CDATA[
    .fil1 {fill:none}
    .fil0 {fill:#1365ee;fill-rule:nonzero}
   ]]>
  </style>
 </defs>
 <g id="Layer_x0020_1">
  <metadata id="CorelCorpID_0Corel-Layer"/>
  <polygon class="fil0" points="3.89333,1.157 3.89333,5.74366 3.68,5.74366 3.68,1.157 "/>
  <polygon class="fil0" points="3.12458,1.55212 3.71125,0.965453 3.78667,0.890035 3.86208,0.965453 4.44875,1.55212 4.29791,1.70295 3.78667,1.1917 3.27542,1.70295 "/>
  <polygon class="fil0" points="5.17333,5.62754 5.17333,1.04087 5.38667,1.04087 5.38667,5.62754 "/>
  <polygon class="fil0" points="4.76875,5.0927 5.28,5.60394 5.79125,5.0927 5.94208,5.24353 5.35542,5.8302 5.28,5.90561 5.20458,5.8302 4.61792,5.24353 "/>
  <path class="fil0" d="M2.15888 2.14822c0.366118,0 0.697598,0.148409 0.937535,0.388354 0.239945,0.239937 0.388354,0.571413 0.388354,0.937535 0,0.366122 -0.148409,0.697598 -0.388354,0.937535 -0.239937,0.239945 -0.571417,0.388354 -0.937535,0.388354 -0.366122,0 -0.697598,-0.148409 -0.937535,-0.388354 -0.239945,-0.239937 -0.388354,-0.571413 -0.388354,-0.937535 0,-0.366122 0.148409,-0.697598 0.388354,-0.937535 0.239937,-0.239945 0.571413,-0.388354 0.937535,-0.388354zm0.786701 0.539189c-0.201323,-0.201327 -0.479469,-0.32585 -0.786701,-0.32585 -0.307236,0 -0.585378,0.124524 -0.786701,0.32585 -0.201327,0.201323 -0.32585,0.479465 -0.32585,0.786701 0,0.307236 0.124524,0.585378 0.32585,0.786701 0.201323,0.201327 0.479465,0.32585 0.786701,0.32585 0.307232,0 0.585378,-0.124524 0.786701,-0.32585 0.201327,-0.201323 0.32585,-0.479465 0.32585,-0.786701 0,-0.307236 -0.124524,-0.585378 -0.32585,-0.786701z"/>
  <path class="fil0" d="M2.10363 3.84798l0 -0.331457c-0.103461,-0.0297165 -0.17937,-0.0742913 -0.227724,-0.13426 -0.0480866,-0.0599724 -0.0723976,-0.132638 -0.0723976,-0.218 0,-0.0864449 0.0272835,-0.15911 0.0818504,-0.218 0.0548386,-0.0588898 0.127504,-0.0926575 0.218272,-0.101843l0 -0.0783386 0.114539 0 0 0.0783386c0.0840118,0.0102638 0.150736,0.0386299 0.200441,0.0859016 0.0494331,0.0472756 0.0810394,0.110488 0.0948189,0.189638l-0.200173 0.0262047c-0.0121535,-0.0624016 -0.0437598,-0.104543 -0.0950866,-0.126697l0 0.309307c0.126693,0.0343071 0.213138,0.0788819 0.258791,0.133449 0.0459213,0.0545669 0.0688858,0.124531 0.0688858,0.210165 0,0.0953583 -0.0289055,0.175862 -0.0864449,0.241232 -0.057811,0.0656457 -0.138311,0.105626 -0.241232,0.120484l0 0.148035 -0.114539 0 0 -0.144256c-0.0913071,-0.0110748 -0.165594,-0.0451102 -0.222594,-0.10211 -0.0569961,-0.0567283 -0.0931969,-0.137232 -0.109134,-0.241232l0.206654 -0.0221535c0.00837402,0.0421417 0.024315,0.0786102 0.0475472,0.109138 0.0229606,0.0305236 0.0488937,0.0526772 0.0775276,0.0664528zm0 -0.830941c-0.0313346,0.0105354 -0.0559173,0.0286339 -0.0745591,0.0537559 -0.0183661,0.0253937 -0.0275512,0.0534882 -0.0275512,0.0840118 0,0.0278268 0.00837402,0.0540276 0.025122,0.0777992 0.0170197,0.0240433 0.0426811,0.0434921 0.0769882,0.0583504l0 -0.273917zm0.114539 0.842016c0.0397087,-0.00729134 0.0718543,-0.0256614 0.0967087,-0.0548386 0.0248504,-0.0294449 0.0372795,-0.063752 0.0372795,-0.103461 0,-0.0353898 -0.0105354,-0.0656457 -0.0313386,-0.0913071 -0.0207992,-0.0256614 -0.0551063,-0.0453819 -0.10265,-0.0588898l0 0.308496z"/>
 </g>
 <rect class="fil1" width="6.82666" height="6.82666"/>
</svg>
