<?xml version="1.0" encoding="UTF-8"?>
<!DOCTYPE svg PUBLIC "-//W3C//DTD SVG 1.1//EN" "http://www.w3.org/Graphics/SVG/1.1/DTD/svg11.dtd">
<!-- Creator: CorelDRAW -->
<svg xmlns="http://www.w3.org/2000/svg" xml:space="preserve" width="6.82666in" height="6.82666in" style="shape-rendering:geometricPrecision; text-rendering:geometricPrecision; image-rendering:optimizeQuality; fill-rule:evenodd; clip-rule:evenodd"
viewBox="0 0 6.82666 6.82666"
 xmlns:xlink="http://www.w3.org/1999/xlink">
 <defs>
  <style type="text/css">
   <![CDATA[
    .fil1 {fill:none}
    .fil0 {fill:#1365ee;fill-rule:nonzero}
   ]]>
  </style>
 </defs>
 <g id="Layer_x0020_1">
  <metadata id="CorelCorpID_0Corel-Layer"/>
  <path class="fil0" d="M1.28 3.79755l0.853335 0 0.106669 0 0 0.106669 0 1.85578 0 0.106669 -0.106669 0 -0.853335 0 -0.106669 0 0 -0.106669 0 -1.85578 0 -0.106669 0.106669 0zm0.746665 0.213339l-0.639996 0 0 1.64244 0.639996 0 0 -1.64244z"/>
  <path class="fil0" d="M2.98666 3.11384l0.853335 0 0.106669 0 0 0.106669 0 2.53949 0 0.106669 -0.106669 0 -0.853335 0 -0.106669 0 0 -0.106669 0 -2.53949 0 -0.106669 0.106669 0zm0.746665 0.213339l-0.639996 0 0 2.32615 0.639996 0 0 -2.32615z"/>
  <path class="fil0" d="M4.69333 2.17823l0.853335 0 0.106669 0 0 0.106669 0 3.47509 0 0.106669 -0.106669 0 -0.853335 0 -0.106669 0 0 -0.106669 0 -3.47509 0 -0.106669 0.106669 0zm0.746665 0.213339l-0.639996 0 0 3.26176 0.639996 0 0 -3.26176z"/>
  <polygon class="fil0" points="0.892917,3.44469 2.71014,1.96761 2.79267,1.90054 2.85972,1.98303 3.33331,2.56569 5.14781,1.09083 5.28198,1.25583 3.38495,2.79777 3.30243,2.86485 3.23537,2.78235 2.76178,2.19969 1.02708,3.60969 "/>
  <polygon class="fil0" points="5.09116,1.91239 5.13394,1.24102 4.48478,1.14828 4.51478,0.937449 5.26145,1.04411 5.35895,1.05805 5.3527,1.1562 5.30366,1.92572 "/>
 </g>
 <rect class="fil1" width="6.82666" height="6.82666"/>
</svg>
