<?xml version="1.0" encoding="UTF-8"?>
<!DOCTYPE svg PUBLIC "-//W3C//DTD SVG 1.1//EN" "http://www.w3.org/Graphics/SVG/1.1/DTD/svg11.dtd">
<!-- Creator: CorelDRAW -->
<svg xmlns="http://www.w3.org/2000/svg" xml:space="preserve" width="2048px" height="2048px" style="shape-rendering:geometricPrecision; text-rendering:geometricPrecision; image-rendering:optimizeQuality; fill-rule:evenodd; clip-rule:evenodd"
viewBox="0 0 2048 2048"
 xmlns:xlink="http://www.w3.org/1999/xlink">
 <defs>
  <style type="text/css">
   <![CDATA[
    .fil0 {fill:none}
    .fil1 {fill:#1365ee;fill-rule:nonzero}
   ]]>
  </style>
 </defs>
 <g id="Layer_x0020_1">
  <metadata id="CorelCorpID_0Corel-Layer"/>
  <rect class="fil0" width="2048" height="2048"/>
  <rect class="fil0" x="255.999" y="255.999" width="1536" height="1536"/>
  <rect class="fil0" x="255.999" y="255.999" width="1536" height="1536"/>
  <polyline class="fil0" points="536.943,1695.51 536.943,1792 1693.21,1792 1693.21,412.351 1567.09,412.351 "/>
  <polygon class="fil1" points="568.943,1695.51 568.943,1760 1661.21,1760 1661.21,444.352 1567.09,444.352 1567.09,380.351 1693.21,380.351 1725.21,380.351 1725.21,412.351 1725.21,1792 1725.21,1824 1693.21,1824 536.943,1824 504.942,1824 504.942,1792 504.942,1695.51 "/>
  <path class="fil1" d="M1472 288l-1088 0 0 1312 1088 0 0 -1312zm-1120 -64.0016l1152 0 32.0008 0 0 32.0008 0 1376 0 32.0008 -32.0008 0 -1152 0 -32.0008 0 0 -32.0008 0 -1376 0 -32.0008 32.0008 0z"/>
  <polygon class="fil1" points="576,447.998 1280,447.998 1280,512 576,512 "/>
  <polygon class="fil1" points="576,1216 1280,1216 1280,1280 576,1280 "/>
  <polygon class="fil1" points="576,1408 1280,1408 1280,1472 576,1472 "/>
  <path class="fil1" d="M608 735.999c35.3422,0 67.343,14.328 90.5079,37.4929 23.1638,23.165 37.4929,55.1658 37.4929,90.5079 0,35.3422 -14.3291,67.343 -37.4929,90.5079 -23.165,23.1638 -55.1658,37.4929 -90.5079,37.4929 -35.3422,0 -67.343,-14.3291 -90.5079,-37.4929 -23.165,-23.165 -37.4929,-55.1658 -37.4929,-90.5079 0,-35.3422 14.328,-67.343 37.4929,-90.5079 23.165,-23.165 55.1658,-37.4929 90.5079,-37.4929zm45.2575 82.7434c-11.5795,-11.5795 -27.5823,-18.7417 -45.2575,-18.7417 -17.6752,0 -33.678,7.16221 -45.2575,18.7417 -11.5795,11.5795 -18.7417,27.5823 -18.7417,45.2575 0,17.6752 7.16221,33.678 18.7417,45.2575 11.5795,11.5784 27.5823,18.7417 45.2575,18.7417 17.6752,0 33.678,-7.16339 45.2575,-18.7417 11.5784,-11.5795 18.7417,-27.5823 18.7417,-45.2575 0,-17.6752 -7.16339,-33.678 -18.7417,-45.2575z"/>
  <path class="fil1" d="M928.001 895.998c35.3422,0 67.343,14.328 90.5079,37.4929 23.1638,23.165 37.4929,55.1658 37.4929,90.5079 0,35.3422 -14.3291,67.343 -37.4929,90.5079 -23.165,23.165 -55.1658,37.4929 -90.5079,37.4929 -35.3422,0 -67.343,-14.328 -90.5079,-37.4929 -23.165,-23.165 -37.4929,-55.1658 -37.4929,-90.5079 0,-35.3422 14.328,-67.343 37.4929,-90.5079 23.165,-23.165 55.1658,-37.4929 90.5079,-37.4929zm45.2575 82.7434c-11.5795,-11.5795 -27.5823,-18.7417 -45.2575,-18.7417 -17.6752,0 -33.678,7.16221 -45.2575,18.7417 -11.5795,11.5795 -18.7417,27.5823 -18.7417,45.2575 0,17.6752 7.16221,33.678 18.7417,45.2575 11.5795,11.5795 27.5823,18.7417 45.2575,18.7417 17.6752,0 33.678,-7.16221 45.2575,-18.7417 11.5784,-11.5795 18.7417,-27.5823 18.7417,-45.2575 0,-17.6752 -7.16339,-33.678 -18.7417,-45.2575z"/>
  <path class="fil1" d="M1248 639.999c35.3422,0 67.343,14.328 90.5079,37.4929 23.165,23.165 37.4929,55.1658 37.4929,90.5079 0,35.3422 -14.328,67.343 -37.4929,90.5079 -23.165,23.1638 -55.1658,37.4929 -90.5079,37.4929 -35.3422,0 -67.343,-14.3291 -90.5079,-37.4929 -23.1638,-23.165 -37.4929,-55.1658 -37.4929,-90.5079 0,-35.3422 14.3291,-67.343 37.4929,-90.5079 23.165,-23.165 55.1658,-37.4929 90.5079,-37.4929zm45.2575 82.7434c-11.5795,-11.5795 -27.5823,-18.7417 -45.2575,-18.7417 -17.6752,0 -33.678,7.16221 -45.2575,18.7417 -11.5784,11.5795 -18.7417,27.5823 -18.7417,45.2575 0,17.6752 7.16339,33.678 18.7417,45.2575 11.5795,11.5784 27.5823,18.7417 45.2575,18.7417 17.6752,0 33.678,-7.16339 45.2575,-18.7417 11.5795,-11.5795 18.7417,-27.5823 18.7417,-45.2575 0,-17.6752 -7.16221,-33.678 -18.7417,-45.2575z"/>
  <polygon class="fil1" points="688.626,868.749 852.668,969.099 819.418,1023.6 655.375,923.25 "/>
  <polygon class="fil1" points="1222.15,838.574 1028.69,996.525 988.442,947.025 1181.9,789.074 "/>
 </g>
</svg>
