<?xml version="1.0" encoding="UTF-8"?>
<!DOCTYPE svg PUBLIC "-//W3C//DTD SVG 1.1//EN" "http://www.w3.org/Graphics/SVG/1.1/DTD/svg11.dtd">
<!-- Creator: CorelDRAW -->
<svg xmlns="http://www.w3.org/2000/svg" xml:space="preserve" width="2048px" height="2048px" style="shape-rendering:geometricPrecision; text-rendering:geometricPrecision; image-rendering:optimizeQuality; fill-rule:evenodd; clip-rule:evenodd"
viewBox="0 0 2048 2048"
 xmlns:xlink="http://www.w3.org/1999/xlink">
 <defs>
  <style type="text/css">
   <![CDATA[
    .fil0 {fill:none}
    .fil1 {fill:#1365ee;fill-rule:nonzero}
   ]]>
  </style>
 </defs>
 <g id="Layer_x0020_1">
  <metadata id="CorelCorpID_0Corel-Layer"/>
  <rect class="fil0" width="2048" height="2048"/>
  <rect class="fil0" x="255.999" y="255.999" width="1536" height="1536"/>
  <rect class="fil0" x="256" y="255.999" width="1536" height="1536"/>
  <path class="fil1" d="M1450.96 427.918c8.6067,-3.97796 17.439,-6.95552 26.4295,-8.93032 9.08032,-1.99252 18.2906,-2.99055 27.5634,-2.99055 24.9827,0 49.03,7.39607 69.5197,20.5063 20.4969,13.1138 37.2969,31.8803 47.7744,54.6142 14.8973,32.3799 15.2681,67.7375 3.83977,98.68 -11.4626,31.0382 -34.7351,57.7111 -67.0749,72.6083 -8.68229,4.01221 -17.4732,6.99213 -26.3044,8.93623 -9.06615,1.9937 -18.3036,2.99292 -27.6449,2.99292 -24.9886,0 -49.0406,-7.39016 -69.5398,-20.5028 -20.4933,-13.1091 -37.2945,-31.8744 -47.7886,-54.626 -14.9043,-32.374 -15.2764,-67.7292 -3.84922,-98.6765 11.4602,-31.0382 34.7339,-57.7134 67.0749,-72.6119zm39.9296 53.5689c-4.54607,0.998032 -8.95276,2.47677 -13.1799,4.43032 -16.3099,7.513 -28.0477,20.9646 -33.8244,36.6118 -5.80867,15.7311 -5.6563,33.6272 1.84843,49.9276 5.34331,11.5831 13.7929,21.0721 24.039,27.626 10.2484,6.55512 22.4492,10.2508 35.2902,10.2508 4.73504,0 9.38032,-0.498426 13.8945,-1.49055 4.69607,-1.03347 9.14646,-2.51457 13.3051,-4.43622 16.3099,-7.513 28.0465,-20.9622 33.8244,-36.6083 5.81103,-15.7335 5.65985,-33.6307 -1.83898,-49.9311 -5.33386,-11.5736 -13.7799,-21.0603 -24.0248,-27.6142 -10.2461,-6.55512 -22.441,-10.2543 -35.2701,-10.2543 -4.84607,0 -9.54568,0.497244 -14.0634,1.48819z"/>
  <path class="fil1" d="M1253.01 479.158l30.561 11.2583 23.4366 8.63505 -2.68583 24.7406c-1.07126,9.87284 -1.44213,19.6866 -1.07953,29.3717 0.357874,9.60119 1.42677,19.2945 3.22914,29.0173l4.5189 24.3756 -22.5189 10.3736 -29.4473 13.5662 -0.265748 0.0661418c-1.02874,0.512599 -1.79882,1.46102 -2.21575,2.59252 -0.454725,1.23662 -0.473622,2.59725 0.0507874,3.79134l0.046063 -0.0212599 17.2122 37.3276 0 0.125197 0.00472441 0.00944883 0.0472441 -0.0212599c0.527953,1.13976 1.48347,1.96772 2.59606,2.37874 1.23307,0.455906 2.57481,0.473622 3.72638,-0.0543308l0.113386 -0.0519685 29.5016 -13.5626 22.4988 -10.3429 15.626 19.3429c6.10394,7.55788 12.7583,14.6445 19.898,21.2362 7.23662,6.68386 14.8854,12.7713 22.8827,18.2433l20.6055 14.0988 -8.60552 23.276 -11.2571 30.4465c-0.499607,1.35354 -0.424016,2.73662 0.0980316,3.87402 0.483071,1.05118 1.39606,1.92992 2.61969,2.38229l38.6044 14.2618c0.968505,0.355512 2.28662,0.152362 3.59055,-0.447638 1.30276,-0.598819 2.2937,-1.41142 2.61024,-2.27008l11.2583 -30.5185 8.62323 -23.3776 24.7524 2.62677c9.8067,1.04055 19.5851,1.38425 29.2713,1.01693 9.75828,-0.370866 19.526,-1.4374 29.2418,-3.20906l24.287 -4.43032 10.3382 22.4303 13.5662 29.4355 -0.0011811 0 0.022441 0.0448819c0.542126,1.17874 1.50945,2.02559 2.63032,2.43898 1.12677,0.415748 2.34685,0.47126 3.43819,0.0850394l-0.0106299 -0.022441 0.0448819 -0.0212599 0.375591 -0.124016 37.2792 -17.1154 -0.022441 -0.0472441c1.16811,-0.540945 2.02323,-1.53898 2.45433,-2.70709 0.452363,-1.22599 0.466536,-2.56536 -0.0649607,-3.72166l-13.5662 -29.4473 -10.3642 -22.4941 19.239 -15.6307c7.5626,-6.1441 14.713,-12.8788 21.4146,-20.1425 6.65906,-7.22008 12.7358,-14.8465 18.189,-22.8177l14.1012 -20.6138 23.2736 8.61379 30.4477 11.2701 0.0862205 0.0862205 0.0177165 -0.0472441c1.00748,0.372048 2.33268,0.18189 3.62008,-0.409843 1.25787,-0.577559 2.23465,-1.40433 2.59961,-2.32323l-0.068504 -0.0248032 14.2087 -38.6162 0.125197 -0.125197c0.0767717,-0.206693 0.142913,-0.453544 0.193701,-0.729922 0.0401575,-0.217323 0.0708662,-0.393307 0.0897638,-0.527953l-0.101575 0 0 -0.447638 0.125197 0c0,-0.276378 -0.0377953,-0.583465 -0.108662,-0.908268 -0.0661418,-0.301181 -0.18189,-0.641339 -0.346063,-1.01221l-0.0472441 0.0212599c-0.272835,-0.588189 -0.638977,-1.09606 -1.07244,-1.49646l0 -0.125197c-0.296457,-0.274016 -0.829134,-0.558662 -1.57677,-0.832678l-30.5717 -11.2748 -23.5087 -8.6693 2.75788 -24.8303c1.09134,-9.83268 1.46575,-19.5791 1.11024,-29.1532 -0.357874,-9.63898 -1.4374,-19.3701 -3.24803,-29.1118l-4.52244 -24.3307 22.6477 -10.4185 29.387 -13.5189 -0.022441 -0.0472441c1.17402,-0.539764 2.02087,-1.50827 2.43543,-2.6315 0.464174,-1.25669 0.501969,-2.60906 0.011811,-3.76418l-0.046063 0.0212599 -17.2713 -37.3701 0.0011811 0 -0.022441 -0.0448819c-0.544489,-1.18347 -1.50118,-2.03032 -2.60315,-2.43662 -1.11732,-0.412205 -2.32795,-0.467717 -3.41103,-0.0850394l0.0106299 0.0236221 -0.0448819 0.0212599 -0.375591 0.124016 -29.5453 13.5626 -22.5024 10.3299 -15.6225 -19.3299c-6.09922,-7.54489 -12.7524,-14.6291 -19.8851,-21.2209 -7.24489,-6.69213 -14.8854,-12.7831 -22.852,-18.2421l-20.6032 -14.1177 8.60316 -23.2571 11.2689 -30.463 0.125197 -0.125197c0.207874,-0.559843 0.298819,-1.16457 0.275197,-1.77874 -0.0200788,-0.499607 -0.196063,-1.1185 -0.52441,-1.82599l0 -0.125197c-0.248032,-0.54567 -0.640158,-1.06772 -1.14331,-1.53425 -0.366142,-0.338977 -0.875198,-0.635434 -1.50473,-0.865749l-38.6162 -14.263c-0.744095,-0.274016 -1.42323,-0.399213 -2.00197,-0.377953 -0.493701,0.0188977 -1.16339,0.214961 -1.97717,0.584646l0 -0.0011811c-0.464174,0.248032 -0.871654,0.561024 -1.20473,0.922442 -0.472441,0.512599 -0.836221,1.06063 -1.06772,1.62047l0.0661418 0.0248032 -11.2583 30.5173 -8.64568 23.4355 -24.7299 -2.68465c-9.82914,-1.06654 -19.5992,-1.42441 -29.2453,-1.06417 -9.66497,0.361418 -19.402,1.43032 -29.1473,3.21378l-24.391 4.46575 -10.3583 -22.4658 -13.578 -29.4473 0 -0.0496063 -0.0188977 0.00826772c-0.536221,-1.16102 -1.50473,-2.00315 -2.6315,-2.4189 -1.21299,-0.447638 -2.53347,-0.465355 -3.66733,0.056693l-0.125197 0 -0.0413386 0.0188977 -37.3477 17.1827 0.0212599 0.0472441 -0.173622 0.0850394 -0.0106299 0.0106299 -0.0649607 0.0295276c-1.01102,0.546851 -1.75394,1.45512 -2.14016,2.50276 -0.43937,1.19055 -0.446457,2.50394 0.0826772,3.65197l0.125197 0.249213 0.0295276 0.0649607 -0.00826772 0.00354331 13.461 29.25 10.3984 22.5969 -19.3984 15.6532c-7.55552,6.09686 -14.6398,12.7453 -21.2256,19.8791 -6.68623,7.23898 -12.7772,14.8961 -18.2528,22.9016l-14.1071 20.6244 -23.2677 -8.62442 -30.5221 -11.3126c-0.744095,-0.271654 -1.40433,-0.398032 -1.94764,-0.376772 -0.507874,0.0200788 -1.09134,0.173622 -1.72914,0.454725l0.0212599 0.046063c-0.687402,0.320079 -1.22244,0.686221 -1.57677,1.07126 -0.401575,0.435827 -0.725197,0.969686 -0.948426,1.57677l-14.2784 38.6044c-0.472441,1.28032 -0.394488,2.60669 0.112205,3.70748 0.520867,1.13386 1.4374,2.0563 2.61732,2.49331zm-13.6902 63.0615l-8.30906 -3.06142c-17.8051,-6.58938 -31.2697,-19.7811 -38.6174,-35.7437 -7.36182,-15.991 -8.65512,-34.7528 -2.11299,-52.4563l14.2784 -38.6044c3.1441,-8.5441 7.90394,-16.2673 13.9476,-22.8272 6.10512,-6.62599 13.4138,-12.0154 21.5776,-15.8209l0.125197 0c8.27363,-3.80906 17.1059,-5.89489 26.0835,-6.25276 9.00001,-0.357874 17.9551,1.01929 26.4461,4.12796l8.41182 3.11811c2.82638,-3.38977 5.74016,-6.71103 8.7378,-9.9567 3.01654,-3.26811 6.13229,-6.47126 9.34253,-9.60828l-3.69331 -8.02442 -0.125197 -0.249213 -0.0295276 -0.0649607 0.0106299 -0.00472441c-7.82245,-17.1378 -7.99961,-35.804 -1.9689,-52.1469 6.08386,-16.4788 18.4559,-30.6638 35.6398,-38.628l0.249213 -0.125197 0.0649607 -0.0295276 0.0259843 0.056693 37.1752 -17.1036 -0.022441 -0.0472441c17.2193,-7.92638 36.0012,-8.12717 52.4162,-2.05748 16.5,6.09922 30.6933,18.4807 38.6315,35.6693l0 0.0496063 0.0188977 -0.00826772 3.7252 8.07757c4.49882,-0.39567 8.99883,-0.677953 13.4988,-0.84567 4.38189,-0.164173 8.74135,-0.220866 13.076,-0.173622l3.05433 -8.27835 0.125197 -0.125197c3.2067,-8.62323 7.92402,-16.3169 13.8756,-22.7705 6.05906,-6.57402 13.3902,-11.9433 21.7051,-15.7961l0.249213 -0.125197c8.15197,-3.70394 16.9547,-5.74016 25.9772,-6.08623 8.93505,-0.343701 17.8299,1.02638 26.2524,4.12914l38.6162 14.263c8.59607,3.15709 16.3748,7.96536 23.0055,14.1154 6.46418,5.99528 11.7721,13.324 15.5953,21.6827l0.0472441 -0.022441c3.80906,8.20158 5.91497,17.0421 6.27638,26.0764 0.35315,8.83701 -1.04173,17.7721 -4.22126,26.3764l0.0696851 0.0259843 -3.09331 8.36221c3.38032,2.82166 6.68977,5.72835 9.92599,8.71772 3.28347,3.03425 6.50552,6.1689 9.66024,9.39922l7.78938 -3.5752 -0.0188977 -0.0401575 0.0448819 -0.0212599 0.375591 -0.124016c17.1969,-7.88977 35.9185,-8.10709 52.2744,-2.06339 16.5,6.09804 30.6744,18.4701 38.6032,35.687l-0.0011811 0 0.022441 0.0448819 17.2713 37.3701 0 0.125197c7.88386,17.2288 8.08701,35.9953 2.03504,52.3666 -6.10749,16.5165 -18.4807,30.7122 -35.6859,38.6315l-0.125197 0 -7.96418 3.66378c0.399213,4.5 0.681497,9.00591 0.849213,13.513 0.164173,4.40197 0.220866,8.7756 0.170079,13.1209l8.29016 3.05788c8.38465,3.08268 16.0854,7.86615 22.7646,14.0244l0.0625985 -0.0673229c6.57402,6.0756 11.9587,13.4315 15.8221,21.7477l0 0.125197c2.0374,4.44567 3.58937,9.09331 4.64528,13.865 1.06181,4.80237 1.60039,9.71694 1.60866,14.6587l0.125197 0 0 0.447638 -0.125197 0.250394c-0.0425197,4.07126 -0.413386,8.01379 -1.11496,11.7768 -0.703938,3.78662 -1.7504,7.5756 -3.13819,11.3291l0.0696851 0.0259843 -14.2087 38.6162 -0.125197 0.125197 -0.0389764 0.103937c-6.49016,17.3977 -19.8898,30.7736 -35.8677,38.1189 -15.9709,7.3441 -34.7859,8.81221 -52.1185,2.41063l-0.0862205 -0.0862205 -0.0177165 0.0472441 -8.33977 -3.0874c-2.80748,3.36378 -5.69764,6.66142 -8.67166,9.88465 -3.03662,3.29173 -6.17717,6.52441 -9.42048,9.6945l3.69567 8.02087c7.93347,17.2335 8.13426,36.0296 2.06575,52.4705 -6.09213,16.5071 -18.4854,30.7252 -35.7048,38.7071l-0.125197 0 -37.0252 16.9984 0.0188977 0.0401575 -0.0448819 0.0212599 -0.375591 0.124016c-17.191,7.88623 -35.9303,8.10355 -52.3016,2.06221 -16.5095,-6.09331 -30.6992,-18.4677 -38.6303,-35.6894l0.0011811 0 -0.022441 -0.0448819 -3.72284 -8.07875c-4.49292,0.398032 -8.98111,0.683859 -13.4599,0.853938 -4.38307,0.166536 -8.74725,0.226772 -13.0878,0.183071l-3.06851 8.31733c-6.45,17.4803 -19.8603,30.9083 -35.8607,38.2701 -16.0051,7.36418 -34.9087,8.84764 -52.3394,2.44843l-38.6044 -14.2618c-17.7697,-6.57875 -31.2355,-19.8177 -38.6197,-35.8831 -7.33701,-15.965 -8.62323,-34.6925 -2.09882,-52.3725l3.07914 -8.32678c-3.38977,-2.82638 -6.70985,-5.74016 -9.95434,-8.7378 -3.28701,-3.03544 -6.51142,-6.17126 -9.66851,-9.40276l-8.10709 3.72756 -0.113386 0.0519685c-17.1803,7.89331 -35.8831,8.09883 -52.2248,2.05512 -16.4658,-6.08859 -30.6343,-18.4512 -38.5961,-35.6292l0 -0.125197 -0.00472441 -0.00944883 -0.0472441 0.0212599 -17.2122 -37.3276 -0.0708662 -0.282284c-7.84607,-17.1815 -8.05158,-35.8914 -2.02677,-52.2367 6.06733,-16.4575 18.4595,-30.6319 35.7544,-38.6114l-0.022441 -0.0472441 8.05394 -3.70985c-0.392126,-4.45394 -0.670867,-8.91379 -0.837402,-13.3725 -0.165354,-4.42323 -0.222047,-8.82284 -0.17126,-13.1953z"/>
  <path class="fil1" d="M313.335 1137.33l58.8556 21.6945 23.4461 8.64213 -2.69528 24.7335c-2.20276,20.2229 -2.93977,40.4847 -2.17677,60.6579 0.757087,20.048 2.99055,40.2296 6.72875,60.4276l4.50709 24.3414 -22.6323 10.4079 -56.7355 26.0894 0.022441 0.0472441 -0.0507874 0.0236221 -0.125197 0c-9.59292,4.4126 -16.5319,12.4311 -19.9854,21.8055 -3.48189,9.45001 -3.40394,20.1768 1.05236,29.9221l0.0472441 -0.0212599 0.0814961 0.177165 0.0200788 0.0200788 0.0236221 0.0519685 -0.00826772 0.00354331 33.026 71.7627c4.4941,9.74056 12.5162,16.7528 21.8421,20.2004 9.39922,3.47481 20.0681,3.39567 29.7673,-1.0748l56.8819 -26.2607 22.5248 -10.3996 15.6 19.2744c12.7807,15.789 26.6634,30.5646 41.5028,44.276 15.013,13.8709 30.8811,26.5217 47.4626,37.9099l20.5819 14.1331 -8.5819 23.2418 -21.7134 58.8095c-3.71457,10.1008 -2.99292,20.765 1.17992,29.8205 4.16929,9.04843 11.7532,16.5024 21.7642,20.2004l74.4083 27.5504c9.50906,3.49252 20.2063,2.50394 29.5441,-1.79764 9.3378,-4.30276 17.0185,-11.7413 20.4945,-21.1453l21.6957 -58.8685 8.62914 -23.4118 24.7465 2.66103c20.2205,2.17323 40.4882,2.89725 60.6815,2.13543 20.0575,-0.755906 40.2307,-2.96929 60.404,-6.67323l24.3768 -4.47638 10.3724 22.4764 26.1981 56.7615 0 0.125197 0.0165354 0.0354331 0.0472441 -0.0212599c4.46339,9.68505 12.4465,16.6477 21.7299,20.0764 9.42757,3.48189 20.1118,3.41339 29.8016,-1.02756l0.13937 -0.0637796 71.9764 -33.0957 -0.022441 -0.0472441c9.72048,-4.48229 16.715,-12.5055 20.1626,-21.8362 3.49016,-9.44528 3.43229,-20.1473 -0.990946,-29.8571l-0.0472441 0.0212599 -26.2654 -56.8193 -10.402 -22.5024 19.2768 -15.6225c15.8091,-12.8114 30.6201,-26.7331 44.3776,-41.6386 13.8189,-14.9728 26.4437,-30.828 37.813,-47.439l14.1142 -20.6232 23.2606 8.62323 58.7434 21.776 0.116929 0.0484252 0.0165354 -0.0448819c9.49489,3.52205 20.1366,2.56654 29.4047,-1.69725 9.31654,-4.28622 17.0091,-11.7815 20.5417,-21.3047l0.245669 -0.539764 27.1831 -73.8284c1.87677,-5.06811 2.71418,-10.2165 2.52284,-15.1973 -0.186614,-4.86024 -1.39725,-9.81142 -3.61536,-14.6102 -2.26063,-4.9063 -5.27717,-9.1004 -8.85946,-12.4122 -3.58701,-3.31654 -7.9193,-5.95394 -12.8008,-7.73859l-0.124016 0 -58.8544 -21.7748 -23.4366 -8.67166 2.68583 -24.704c2.19803,-20.224 2.93386,-40.5378 2.15788,-60.7713 -0.762993,-19.904 -3.00591,-40.017 -6.77599,-60.189l-4.56969 -24.4477 22.6949 -10.4268 56.7839 -26.0894 -0.022441 -0.0472441 0.0484252 -0.022441c9.69804,-4.47874 16.6807,-12.4937 20.1213,-21.8114 3.46536,-9.38859 3.38386,-20.0398 -1.07244,-29.7083l-0.022441 -0.0484252 0 -0.125197 -33.1087 -72.039 -0.0472441 0.022441c-4.47992,-9.70513 -12.5209,-16.7055 -21.8752,-20.1567 -9.40867,-3.47126 -20.0917,-3.39213 -29.7921,1.08071l-56.8241 26.1981 -22.6311 10.4339 -15.6189 -19.3087c-13.0347,-16.1126 -26.8819,-30.8977 -41.4177,-44.3126 -14.9858,-13.8295 -30.854,-26.452 -47.4674,-37.8142l-20.6008 -14.0894 8.60079 -23.2855 21.7134 -58.7882c1.87323,-5.06339 2.70945,-10.2177 2.51693,-15.2138 -0.187795,-4.88032 -1.39606,-9.84686 -3.61418,-14.6563l0 -0.125197c-2.17559,-4.74331 -5.17323,-8.88072 -8.79804,-12.2374 -3.64134,-3.37205 -8.0256,-6.06969 -12.9614,-7.92402l-0.0248032 0.068504 -74.4272 -27.4878c-5.03859,-1.84843 -10.1917,-2.67402 -15.2055,-2.4815 -4.9441,0.188977 -9.89765,1.36299 -14.6185,3.51378l0.0212599 0.0472441c-4.89567,2.25473 -9.08032,5.25119 -12.3898,8.81339l0.0673229 0.0625985c-3.4063,3.68622 -6.09567,8.07638 -7.89568,12.9886l-21.7748 58.8544 -8.67402 23.4461 -24.7016 -2.69528c-20.1851,-2.20158 -40.4433,-2.93977 -60.6201,-2.17914 -20.0634,0.755906 -40.2603,2.98347 -60.4477,6.71339l-24.3425 4.49882 -10.4067 -22.624 -26.0894 -56.7178 -0.0472441 0.022441c-4.49174,-9.73465 -12.5268,-16.7469 -21.8705,-20.1992 -9.41339,-3.47835 -20.0977,-3.39803 -29.8004,1.0748l-72.0166 33.2055 -0.0307087 0.0141732c-9.73465,4.48465 -16.7256,12.4937 -20.1591,21.8103 -3.46536,9.40394 -3.37796,20.0894 1.07008,29.8335l0.0472441 -0.0212599 0.0141732 0.0307087 0 0.125197 26.1319 56.8241 10.3217 22.4421 -19.1965 15.5575c-15.8303,12.8303 -30.6626,26.7579 -44.4272,41.6622 -13.7953,14.9374 -26.3882,30.7441 -37.7103,47.2985l-14.1012 20.6185 -23.2736 -8.61851 -58.7918 -21.7701c-5.02441,-1.84252 -10.141,-2.66457 -15.1016,-2.46969 -4.96536,0.196063 -9.96969,1.40079 -14.765,3.60709 -4.73386,2.1874 -8.88072,5.2063 -12.2658,8.87009 -3.40748,3.6874 -6.09686,8.06339 -7.88859,12.9354l-27.4925 74.4721 -0.0165354 0.0330709 0.00354331 0.0011811c-3.72048,10.0724 -3.00118,20.7154 1.16221,29.7555 4.1752,9.06497 11.7638,16.5378 21.7595,20.2358l0.0330709 0.0165354 0.0011811 -0.00354331zm14.0575 73.291l-36.0567 -13.291 -0.0330709 -0.0165354 -0.0011811 0.00354331c-26.6185,-9.84922 -46.7528,-29.5914 -57.7595,-53.4863 -11.0197,-23.9244 -12.9532,-52.0052 -3.16299,-78.5044l0.0165354 -0.0330709 -0.00354331 -0.0011811 27.4925 -74.4721c4.71969,-12.8303 11.837,-24.3898 20.8878,-34.1859 9.08505,-9.83387 20.0788,-17.8713 32.517,-23.6197 12.4004,-5.70591 25.6217,-8.83111 39.0154,-9.35906 13.4221,-0.529134 26.8394,1.54134 39.6,6.22087l36.1559 13.389c9.02127,-11.8075 18.6024,-23.2099 28.7209,-34.167 10.1575,-10.9996 20.915,-21.6012 32.2512,-31.7717l-16.0323 -34.8626 -0.0472441 0.022441 -0.0141732 -0.0307087 0 -0.125197c-11.85,-25.7587 -12.1772,-53.8512 -3.11811,-78.4359 9.10631,-24.7063 27.626,-45.9331 53.4095,-57.8103l0.0307087 -0.0141732 72.0166 -33.2055c25.7717,-11.8807 53.9162,-12.1772 78.5493,-3.07559 24.724,9.13465 45.9839,27.6851 57.8705,53.4496l0 0.125197 16.0063 34.7977c15.0118,-1.98189 30.052,-3.25158 45.0768,-3.81733 15.0071,-0.565748 29.915,-0.434646 44.6811,0.382677l13.3406 -36.0567c4.71024,-12.8539 11.8252,-24.424 20.8949,-34.239l0.125197 0c9.1689,-9.91891 20.1366,-17.9551 32.4485,-23.6256l0.125197 0c12.4004,-5.68937 25.6075,-8.8004 38.9705,-9.313 13.3453,-0.512599 26.7166,1.55906 39.4559,6.23268l74.4272 27.4878 0.125197 0.125197c12.7394,4.73504 24.2835,11.8784 34.1114,20.9799 9.81615,9.08977 17.8205,20.0351 23.5004,32.3859l0.0472441 -0.022441c5.71536,12.3933 8.84646,25.6642 9.36615,39.1548 0.517323,13.3795 -1.56496,26.7508 -6.26812,39.4642l-13.3465 36.1335c11.8689,9.05788 23.3327,18.6768 34.35,28.8437 11.0764,10.2236 21.6496,20.9091 31.676,32.0422l34.8166 -16.0512c25.7622,-11.8784 53.9056,-12.1713 78.541,-3.0815 24.7264,9.12284 45.991,27.6662 57.8752,53.4071l0 0.125197 33.1087 72.039 0.0472441 -0.022441 0.022441 0.0484252c11.8606,25.728 12.1606,53.8418 3.07323,78.4571 -9.11576,24.6862 -27.6319,45.9237 -53.3717,57.8115l-0.0484252 0.022441 -0.125197 0 -34.813 15.9945c1.98189,14.9291 3.25394,29.9303 3.82914,44.9552 0.576378,15.052 0.448819,30.0107 -0.368504,44.83l36.0638 13.3429 -0.0153543 0.0401575c12.7347,4.67481 24.3071,11.811 34.1906,20.948 9.89765,9.15237 17.941,20.1106 23.6091,32.413 5.71418,12.3614 8.84646,25.6169 9.36733,39.1087 0.516142,13.3725 -1.56851,26.7402 -6.27402,39.4477l-27.4252 74.4851 -0.0484252 0.116929 0.0448819 0.0165354c-9.63072,25.9595 -29.7366,45.9863 -53.7922,57.0544 -24.104,11.0906 -52.4209,13.3347 -78.404,3.69803l-0.559843 -0.253937 -35.439 -13.1374c-9.05434,11.8583 -18.6662,23.3032 -28.8154,34.3004 -10.1209,10.9654 -20.8347,21.5362 -32.1248,31.676l16.1362 34.9075 0 0.125197c11.8276,25.7622 12.1228,53.8748 3.03898,78.4595 -9.13229,24.7158 -27.6591,45.9615 -53.413,57.8363l-0.125197 0 -72.0792 33.1429 -0.13937 0.0637796c-25.7232,11.791 -53.7733,12.0862 -78.3001,3.02835 -24.6697,-9.11221 -45.8764,-27.6059 -57.73,-53.3268l0 -0.125197 -0.0165354 -0.0354331 -0.0472441 0.0212599 -16.0996 -34.8827c-14.9941,1.9689 -30.0059,3.23032 -45.0012,3.79607 -15.0024,0.565748 -29.9138,0.440552 -44.7,-0.364961l-13.3039 36.0969c-9.62127,26.0221 -29.7166,46.0737 -53.7449,57.1453 -24.0343,11.0728 -52.3134,13.3406 -78.293,3.79843l-74.4083 -27.5504c-26.6292,-9.83623 -46.7528,-29.5547 -57.7642,-53.4508 -11.0197,-23.9114 -12.9484,-52.0087 -3.18071,-78.5694l13.3618 -36.1914c-11.8772,-9.08623 -23.3445,-18.724 -34.3607,-28.9028 -10.9217,-10.0913 -21.4547,-20.7709 -31.5579,-32.028l-34.9524 16.1362c-25.7776,11.8807 -53.902,12.176 -78.5162,3.07559 -24.7146,-9.1382 -45.9567,-27.6898 -57.8422,-53.4508l-33.1429 -72.0154 -0.125197 -0.249213 -0.0236221 -0.0519685 0.0578741 -0.0259843c-11.7591,-25.7221 -12.0508,-53.7804 -3.00945,-78.3225 9.0815,-24.6461 27.5953,-45.8587 53.3835,-57.7571l-0.022441 -0.0484252 0.0507874 -0.0236221 0.125197 0 34.8071 -16.0063c-1.98662,-15.0059 -3.2563,-30.0378 -3.82441,-45.0567 -0.568111,-15.0024 -0.438189,-29.9103 0.379134,-44.6882zm351.442 -257.483c20.9209,-9.57875 42.2563,-16.7646 63.8717,-21.5079 21.8185,-4.78701 44.0433,-7.20473 66.5351,-7.20473 60.7205,0 118.951,17.8382 168.401,49.493 49.3394,31.5839 89.8631,76.9796 115.29,132.17 36.0154,78.2186 36.8906,163.742 9.22324,238.675 -27.6969,75.013 -83.9434,139.482 -162.129,175.497 -20.8004,9.59174 -42.0922,16.7811 -63.7075,21.5362l-0.125197 0c-21.8433,4.80473 -44.1118,7.22245 -66.6355,7.22245l0 -0.125197c-60.763,0.00236221 -118.973,-17.7921 -168.319,-49.3607 -49.4658,-31.6441 -90.0497,-77.0268 -115.434,-132.115l0 -0.125197c-35.9705,-78.2375 -36.8374,-163.723 -9.19489,-238.612 27.6921,-75.0225 83.928,-139.499 162.099,-175.543l0.125197 0zm77.3717 40.9914c-17.5217,3.84449 -34.4799,9.51261 -50.7685,16.9606l0.0212599 0.0472441c-62.1343,28.6488 -106.836,79.9028 -128.849,139.543 -22.0488,59.7319 -21.4181,127.808 7.14686,190.01l0.0472441 -0.0212599c20.2406,43.9252 52.4729,80.0304 91.6843,105.115 39.3473,25.1717 85.7138,39.3603 134.069,39.3591l0 -0.125197c18.0378,0 35.7555,-1.90748 53.0162,-5.6941l-0.00590552 -0.0259843c17.4957,-3.84922 34.4457,-9.53741 50.7083,-17.0362 62.1532,-28.6288 106.864,-79.8745 128.878,-139.497 22.0488,-59.7154 21.3933,-127.778 -7.22245,-189.926 -20.2181,-43.8839 -52.4823,-80.0079 -91.7906,-105.17 -39.2055,-25.0984 -85.5024,-39.241 -133.9,-39.241 -18.0508,0 -35.765,1.91339 -53.0351,5.70237z"/>
 </g>
</svg>
